<?xml version="1.0" encoding="UTF-8"?>
<svg version="1.1" xmlns="http://www.w3.org/2000/svg" width="1024" height="1024">
<path d="M0 0 C337.92 0 675.84 0 1024 0 C1024 337.92 1024 675.84 1024 1024 C686.08 1024 348.16 1024 0 1024 C0 686.08 0 348.16 0 0 Z " fill="#FEFEFE" transform="translate(0,0)"/>
<path d="M0 0 C0.88842978 -0.00692464 1.77685956 -0.01384928 2.69221145 -0.02098376 C3.66408611 -0.02352787 4.63596078 -0.02607199 5.63728619 -0.0286932 C7.19083774 -0.03844163 7.19083774 -0.03844163 8.77577418 -0.04838699 C12.25716624 -0.06881745 15.73854664 -0.08201052 19.21997356 -0.09508419 C21.71163883 -0.10789465 24.20330244 -0.1210301 26.69496441 -0.13446712 C34.88581157 -0.17620642 43.07667442 -0.20652924 51.26758099 -0.23351192 C51.96414467 -0.23581951 52.66070836 -0.23812709 53.37838003 -0.24050459 C67.21184929 -0.28594268 81.04533452 -0.32444914 94.87885284 -0.35123444 C97.91866673 -0.3572234 100.95848039 -0.36330908 103.99829388 -0.36949825 C104.75381185 -0.37103123 105.50932982 -0.37256422 106.28774228 -0.37414365 C118.53053364 -0.39986514 130.77298131 -0.45675763 143.01559583 -0.52596355 C155.58713869 -0.59644171 168.15850374 -0.63666911 180.730241 -0.64798397 C187.78807097 -0.65514285 194.845303 -0.6758905 201.90293598 -0.73101139 C208.54081447 -0.78281818 215.17788186 -0.79407599 221.81600285 -0.77776051 C224.25290911 -0.77836525 226.68985618 -0.79269213 229.12658978 -0.82170773 C232.45322557 -0.85925112 235.77618466 -0.8474836 239.10286236 -0.82337093 C240.06804486 -0.84599155 241.03322735 -0.86861216 242.02765781 -0.89191824 C246.02135819 -0.81819339 248.54975898 -0.69403725 251.68918836 1.91316521 C253.45580903 3.91801613 255.02259446 5.96271463 256.56054974 8.14539433 C257.76686094 9.46435265 258.98039345 10.77685415 260.20898724 12.07508183 C260.8172636 12.72009647 261.42553997 13.36511112 262.05224895 14.02967167 C262.67373821 14.68661015 263.29522747 15.34354862 263.93554974 16.02039433 C269.55883234 21.99159425 275.10775395 28.01759094 280.56054974 34.14539433 C286.41926174 40.71831122 292.38249424 47.18347944 298.40039349 53.61023808 C302.43955615 57.92916958 306.42298155 62.29231994 310.36523724 66.70008183 C317.18922266 74.30117591 324.1455913 81.78412894 331.0771513 89.28699589 C335.79749471 94.39790423 340.49917081 99.52576144 345.19726849 104.65711308 C346.57794793 106.16438777 347.95970649 107.67066597 349.34179974 109.17664433 C349.80771526 109.68445438 350.27363079 110.19226444 350.75366497 110.71546268 C352.02382503 112.09975372 353.29413419 113.48390795 354.56445599 114.86805058 C355.00376316 115.36688971 355.44307033 115.86572885 355.89568985 116.37968433 C357.62978136 118.27194705 357.62978136 118.27194705 359.99741375 120.30240929 C365.8819142 125.88361274 368.62223236 130.28239296 368.86076028 138.67665756 C368.87036473 140.89867576 368.83060977 143.11685326 368.79001141 145.33847904 C368.79724729 146.96390343 368.80886528 148.58931315 368.82445538 150.21467888 C368.85444158 154.65778345 368.82243994 159.09856551 368.77984214 163.5414865 C368.74476979 168.34191552 368.7676372 173.14212156 368.78317547 177.94260502 C368.8044913 187.33791006 368.77266896 196.73231654 368.72289895 206.12748466 C368.66695699 217.07606907 368.66435267 228.02447302 368.66401292 238.97317661 C368.6616394 258.51433565 368.61173277 278.05508295 368.53467083 297.59607792 C368.46000397 316.5420917 368.41748101 335.48780617 368.41162395 354.43396854 C368.41125833 355.6006046 368.41089271 356.76724066 368.41051601 357.96922933 C368.41015807 359.13388038 368.40980013 360.29853144 368.40943134 361.49847496 C368.40870048 363.8436358 368.40795573 366.18879664 368.407197 368.53395748 C368.40682597 369.69061232 368.40645494 370.84726715 368.40607267 372.03897213 C368.39892343 390.11448146 368.36201422 408.18994481 368.32221051 426.26540723 C368.30818877 432.80784456 368.29860988 439.35027099 368.29228781 445.89272009 C368.28216888 456.27372462 368.25919654 466.65452145 368.20968722 477.03541933 C368.18731524 481.77627838 368.17101031 486.5169348 368.17195415 491.2578516 C368.17257443 495.6043207 368.15452582 499.95031161 368.12201811 504.29665555 C368.11343886 505.86247398 368.11140637 507.42834612 368.11687027 508.99417852 C368.16020172 523.46205381 365.80357907 536.20952416 355.74804974 547.11023808 C343.87970784 558.42823347 327.12490474 558.24652818 311.63231182 557.91033268 C306.05500163 557.62359846 301.33057168 557.29537257 296.57763958 554.20740604 C291.75794512 548.85019132 289.37152616 542.37839331 286.94336224 535.67859745 C284.58138153 529.64353658 281.23935822 524.17920655 277.99804974 518.58289433 C276.73399728 516.30698401 275.47483502 514.02835042 274.22070599 511.74695683 C270.83569978 505.62561104 267.39304549 499.53849852 263.93554974 493.45789433 C258.98627514 484.74291652 254.18726061 475.95442719 249.43725872 467.12952518 C245.19129809 459.26041295 240.81432862 451.47191919 236.39380169 443.69983768 C230.65141712 433.58555978 225.10649186 423.36863704 219.56054974 413.14539433 C204.38054974 412.81539433 189.20054974 412.48539433 173.56054974 412.14539433 C176.74711224 418.08539433 176.74711224 418.08539433 179.99804974 424.14539433 C184.3207955 432.20753622 188.6346123 440.27421969 192.91992474 448.35633183 C193.45630817 449.36789593 193.45630817 449.36789593 194.00352764 450.39989567 C195.45030896 453.12876992 196.89692627 455.85773087 198.34305096 458.58695316 C202.64550872 466.70415187 206.99501465 474.79014833 211.43554974 482.83289433 C217.76993454 494.33094885 223.71061098 506.03216321 229.68384075 517.7203455 C230.49295137 519.30346167 231.30211386 520.88655134 232.11133099 522.46961308 C232.50224422 523.23436451 232.89315746 523.99911594 233.29591656 524.78704166 C236.27154662 530.60006533 239.30401613 536.38112357 242.37304974 542.14539433 C250.21428137 556.93233167 256.79833389 569.70020596 251.93554974 586.77039433 C247.1284061 600.82204496 239.65384965 608.45190074 226.49023724 614.98133183 C221.0544477 617.1411522 215.64783324 617.29231927 209.86199379 617.28240871 C209.10257407 617.28506054 208.34315435 617.28771237 207.5607219 617.29044455 C205.01336497 617.29811037 202.46605646 617.29869568 199.91868877 617.29929447 C198.07486395 617.30331087 196.23104 617.30774939 194.3872171 617.31257403 C189.31796675 617.32452531 184.2487259 617.33018461 179.17946422 617.33475518 C173.71300597 617.34071664 168.24655905 617.35232502 162.78010845 617.36304569 C149.5781351 617.38755552 136.37615801 617.40219389 123.17416891 617.41510576 C119.44508303 617.41881844 115.71599752 617.42279161 111.98691201 617.42685843 C88.82643838 617.45209348 65.66596415 617.47414506 42.50547981 617.48658657 C37.14224463 617.48950774 31.77900947 617.4924753 26.41577435 617.49549198 C25.749482 617.49586289 25.08318966 617.4962338 24.39670665 617.49661595 C2.79882151 617.50876874 -18.79898209 617.53971033 -40.39682894 617.58141351 C-63.24240233 617.62544528 -86.08794001 617.65112425 -108.93355793 617.65650713 C-121.38262072 617.65992017 -133.83155483 617.67166313 -146.28057766 617.70460987 C-156.88211809 617.73262143 -167.48350344 617.74360471 -178.08507801 617.73241441 C-183.49229068 617.72723089 -188.89917862 617.73009514 -194.30634403 617.75487995 C-199.26178313 617.77740424 -204.21666481 617.77660766 -209.17211389 617.75767608 C-210.95951027 617.75488058 -212.74694471 617.76044944 -214.53428001 617.77548902 C-228.56474632 617.88627789 -240.21935001 615.92462647 -251.22460651 606.36414433 C-261.0564749 596.51493579 -266.45975794 583.41677971 -266.68945026 569.52039433 C-266.71523151 568.6000037 -266.74101276 567.67961308 -266.76757526 566.73133183 C-265.92131168 557.48287979 -262.80085737 548.92473221 -259.08007526 540.48523808 C-258.65894459 539.50967457 -258.23781391 538.53411106 -257.8039217 537.52898502 C-256.44087324 534.37655117 -255.065235 531.22978776 -253.68945026 528.08289433 C-252.73393039 525.87870742 -251.77934998 523.67411303 -250.82568073 521.46912479 C-248.92016973 517.06593941 -247.01034532 512.6646692 -245.09667683 508.26502323 C-241.85724599 500.81254081 -238.65619235 493.34387316 -235.46276569 485.87159061 C-233.9599277 482.35639149 -232.45347312 478.84274319 -230.94726276 475.32898808 C-230.65496784 474.64692295 -230.36267292 473.96485783 -230.06152058 473.26212406 C-228.32873932 469.21890764 -226.59462598 465.17626527 -224.85949421 461.13405704 C-223.3856798 457.70053621 -221.91243225 454.26677235 -220.43945026 450.83289433 C-220.14308674 450.14202732 -219.84672321 449.45116032 -219.54137897 448.73935795 C-215.2914202 438.82919059 -211.05989692 428.91125073 -206.83788776 418.98914433 C-206.34778217 417.83735188 -205.85767658 416.68555943 -205.35271931 415.49886417 C-204.3473579 413.13606048 -203.34200725 410.77325221 -202.33666706 408.41043949 C-188.8730705 376.76801845 -188.8730705 376.76801845 -182.93945026 363.14539433 C-177.09261476 349.71936396 -171.35926595 336.24564931 -165.62695026 322.77039433 C-157.54827771 303.78024852 -149.44764137 284.79975915 -141.31445026 265.83289433 C-140.81483784 264.66775303 -140.31522541 263.50261173 -139.80047321 262.30216312 C-137.30958409 256.49355771 -134.81824326 250.68514618 -132.3266573 244.87683964 C-127.36769506 233.31611214 -122.4137247 221.75324472 -117.45904255 210.19068241 C-116.17259801 207.18859259 -114.88611699 204.18651839 -113.59960651 201.18445683 C-113.17671345 200.1976392 -112.75382038 199.21082157 -112.31811237 198.19410038 C-109.68420941 192.04841024 -107.04897373 185.90329318 -104.41285419 179.7585535 C-95.9375235 160.00264134 -87.46717544 140.24481796 -79.06445026 120.45789433 C-78.5670937 119.28690693 -78.5670937 119.28690693 -78.05968952 118.09226322 C-75.06132055 111.03261382 -72.06374641 103.97262676 -69.06725788 96.91217899 C-66.03370019 89.76459921 -62.99788099 82.61798601 -59.9596529 75.47239017 C-58.96379207 73.12915646 -57.96868722 70.78560129 -56.97442341 68.44168949 C-52.21915963 57.23218701 -47.44201364 46.03501136 -42.46288776 34.92273808 C-42.10420612 34.11959171 -41.74552448 33.31644535 -41.3759737 32.48896122 C-34.72307809 17.75647411 -26.51354471 7.94344919 -11.06835651 2.02039433 C-7.27723231 0.75856398 -4.00611406 0.02068653 0 0 Z " fill="#3A3DCF" transform="translate(461.43945026397705,214.85460567474365)"/>
<path d="M0 0 C0.66 0 1.32 0 2 0 C2.32701904 0.88570679 2.32701904 0.88570679 2.66064453 1.78930664 C10.2116124 22.14582098 18.27628714 42.2914045 26.35961914 62.44116211 C27.32180377 64.83967039 28.2839619 67.2381893 29.24609375 69.63671875 C29.7241597 70.82841171 30.20222565 72.02010468 30.69477844 73.24790955 C35.68447334 85.69356969 40.62920653 98.15689456 45.5625 110.625 C45.95759766 111.62270416 46.35269531 112.62040833 46.75976562 113.64834595 C47.88360646 116.48660479 49.00646947 119.32524814 50.12890625 122.1640625 C50.44884048 122.9722493 50.76877472 123.7804361 51.09840393 124.6131134 C53.77583714 131.39291295 56.38291654 138.19558301 59 145 C87.05 145.33 115.1 145.66 144 146 C138.78193261 132.35694781 138.78193261 132.35694781 133.55883789 118.71582031 C132.90492857 117.00332473 132.25118977 115.29076403 131.59765625 113.578125 C131.08712708 112.2485376 131.08712708 112.2485376 130.56628418 110.89208984 C130.07919983 109.61374268 130.07919983 109.61374268 129.58227539 108.30957031 C129.30025772 107.57232727 129.01824005 106.83508423 128.72767639 106.07550049 C128.02320999 104.06620022 127.50242683 102.06740957 127 100 C138.95294924 99.93032791 150.90584975 99.87710145 162.85896111 99.84456348 C168.40995356 99.82894275 173.96080654 99.80777023 179.51171875 99.77368164 C184.87392666 99.74095994 190.23600084 99.72311999 195.59830093 99.71536827 C197.63871489 99.70984771 199.67912196 99.69906764 201.71947861 99.68280983 C204.5890225 99.66086521 207.45802172 99.65804016 210.32763672 99.65942383 C211.16130264 99.648638 211.99496857 99.63785217 212.85389709 99.6267395 C221.76563715 99.67289505 229.69518711 101.65491338 236.18359375 107.93359375 C246.63691283 119.82564922 248.08067352 134.4766423 247.21142578 149.72119141 C246.0945021 161.75971986 241.16177418 171.7658288 232.1015625 179.7109375 C225.28998051 183.88904541 219.11212465 184.4307676 211.31921387 184.36076355 C210.26698906 184.36332682 209.21476426 184.3658901 208.13065386 184.36853105 C204.61754386 184.37345825 201.10486705 184.35699311 197.59179688 184.34057617 C195.06848155 184.33972967 192.54516548 184.34020549 190.02185059 184.34190369 C184.59584579 184.34258605 179.16997959 184.33409686 173.7440033 184.31719017 C165.89907815 184.2927623 158.05420527 184.28499104 150.20924622 184.2812262 C137.47996254 184.27466764 124.75073668 184.25472268 112.02148438 184.22631836 C99.65950814 184.19876234 87.29754764 184.17753632 74.93554688 184.16479492 C74.1729778 184.16400675 73.41040872 184.16321858 72.62473148 184.16240653 C68.79897441 184.15849129 64.97321724 184.15470019 61.14745998 184.15097082 C29.43159759 184.11989347 -2.2841922 184.06685022 -34 184 C-34.20411475 184.61731727 -34.40822951 185.23463454 -34.61852956 185.8706584 C-34.88728548 186.68079405 -35.1560414 187.49092971 -35.43294144 188.32561493 C-35.69893119 189.1285572 -35.96492095 189.93149947 -36.23897099 190.75877333 C-37.09090463 193.26771368 -38.04128888 195.71465015 -39.06542969 198.15820312 C-39.44302429 199.06364868 -39.8206189 199.96909424 -40.20965576 200.90197754 C-40.60968811 201.85213745 -41.00972046 202.80229736 -41.421875 203.78125 C-41.84494934 204.79360718 -42.26802368 205.80596436 -42.70391846 206.84899902 C-44.04958108 210.067278 -45.39963428 213.28369197 -46.75 216.5 C-48.08511365 219.68814257 -49.41930516 222.87666952 -50.75323486 226.06530762 C-51.57944342 228.03939838 -52.40646892 230.01314757 -53.23455811 231.9864502 C-56.8634574 240.64163632 -60.42630482 249.32102599 -64 258 C-8.23 258 47.54 258 105 258 C107.90740998 264.39630195 110.77278422 270.70985698 113.35546875 277.22631836 C113.80398839 278.34847449 113.80398839 278.34847449 114.26156902 279.49330044 C115.23931263 281.9411852 116.21339934 284.39050733 117.1875 286.83984375 C117.88571828 288.58966998 118.58419542 290.33939294 119.28291321 292.08901978 C120.76062246 295.79048712 122.23683893 299.49254456 123.71182251 303.19509888 C127.16287041 311.85756259 130.62209706 320.51676097 134.08080482 329.17616844 C135.22895937 332.05090833 136.3768349 334.92575952 137.52470398 337.8006134 C143.75479068 353.40109466 150.01797711 368.98790337 156.3125 384.5625 C156.73362061 385.60534149 157.15474121 386.64818298 157.58862305 387.72262573 C158.76259145 390.62925799 159.93765107 393.53544578 161.11328125 396.44140625 C161.4615799 397.30328049 161.80987854 398.16515472 162.16873169 399.05314636 C164.44739943 404.6779605 166.78823149 410.27145443 169.21166992 415.83569336 C170 418 170 418 170 421 C56.81 421 -56.38 421 -173 421 C-169.62524917 410.87574751 -169.62524917 410.87574751 -168.19750977 407.49121094 C-167.8756218 406.72345337 -167.55373383 405.9556958 -167.22209167 405.16467285 C-166.88196548 404.36267456 -166.54183929 403.56067627 -166.19140625 402.734375 C-165.82884232 401.87179077 -165.46627838 401.00920654 -165.09272766 400.1204834 C-164.31933514 398.2814196 -163.54447411 396.44297277 -162.76824951 394.60510254 C-161.12924823 390.72410017 -159.497759 386.83995447 -157.86578369 382.95599365 C-157.04791507 381.00975307 -156.22967909 379.06366681 -155.41107178 377.11773682 C-152.20882746 369.50482015 -149.02977419 361.88273305 -145.875 354.25 C-145.41061523 353.12658203 -144.94623047 352.00316406 -144.46777344 350.84570312 C-140.05711222 340.16029756 -135.67775063 329.46204672 -131.29434204 318.76544189 C-123.95849889 300.86730564 -116.55072267 282.99929815 -109.13232422 265.13525391 C-105.62753551 256.69530973 -102.12589546 248.25405972 -98.625 239.8125 C-98.27768829 238.97511292 -97.93037659 238.13772583 -97.57254028 237.27496338 C-91.46717404 222.55331637 -85.38115236 207.8237183 -79.29959106 193.09222412 C-73.5653376 179.20255874 -67.8200886 165.31750869 -62.0625 151.4375 C-61.70836029 150.58372772 -61.35422058 149.72995544 -60.98934937 148.85031128 C-59.61019054 145.52542091 -58.23099997 142.20054371 -56.85176086 138.87568665 C-47.82973509 117.1258475 -38.84092271 95.36240273 -29.88574219 73.58496094 C-28.59544991 70.44729298 -27.3043525 67.30995788 -26.01269531 64.17285156 C-17.22495531 42.82777807 -8.51794119 21.45431904 0 0 Z " fill="#FDFDFE" transform="translate(459,369)"/>
<path d="M0 0 C63.36 0 126.72 0 192 0 C192.33 25.08 192.66 50.16 193 76 C198.78744853 90.46862132 199.45651738 90.72825869 214 98 C247.66 98.495 247.66 98.495 282 99 C282 206.58 282 314.16 282 425 C279.15538291 422.15538291 277.77129688 420.00683734 275.91796875 416.49609375 C275.32290527 415.3762207 274.7278418 414.25634766 274.11474609 413.10253906 C273.47231144 411.88086952 272.8298966 410.65918956 272.1875 409.4375 C271.51705303 408.17252583 270.84598265 406.90788188 270.17431641 405.64355469 C268.79082325 403.03864248 267.40957804 400.4325575 266.02978516 397.82568359 C263.00586965 392.11890647 259.93979703 386.43489293 256.875 380.75 C256.30982666 379.6971582 255.74465332 378.64431641 255.16235352 377.55957031 C252.22321872 372.09020192 249.25302359 366.64077893 246.234375 361.21484375 C245.62867676 360.11881836 245.02297852 359.02279297 244.39892578 357.89355469 C243.24459442 355.80730648 242.08192603 353.72564226 240.90966797 351.64941406 C240.39549316 350.71709961 239.88131836 349.78478516 239.3515625 348.82421875 C238.89604004 348.01041748 238.44051758 347.19661621 237.97119141 346.3581543 C236.86514446 343.67255664 236.70823401 341.87899215 237 339 C238.14130213 336.61601104 239.33210601 334.35991123 240.625 332.0625 C245.85143286 322.21255019 248.47614913 311.80678303 251 301 C251.17402344 300.25733887 251.34804688 299.51467773 251.52734375 298.74951172 C254.93666349 283.84782594 255.27144284 269.02636415 255.3125 253.8125 C255.31511841 252.88269318 255.31773682 251.95288635 255.32043457 250.99490356 C255.32496851 235.93428509 254.23671274 221.74725452 251 207 C250.6938692 205.42761535 250.39036004 203.85471735 250.08984375 202.28125 C246.17844881 182.82715036 236.84555261 162.02327568 220.15454102 150.42431641 C209.48987191 143.38671751 197.86872653 138.92287351 184.96353149 138.84178162 C183.77730194 138.8319928 182.59107239 138.82220398 181.36889648 138.81211853 C180.08136475 138.80636307 178.79383301 138.8006076 177.46728516 138.79467773 C176.08710442 138.78508951 174.70692657 138.77507889 173.32675171 138.76467896 C169.59170742 138.73772607 165.85665062 138.71666468 162.12156343 138.69667697 C158.21378094 138.67475785 154.30603659 138.64739824 150.39828491 138.62062073 C143.00365166 138.57077378 135.60899715 138.52580539 128.21432245 138.48259836 C119.79352029 138.43315749 111.37275641 138.37826483 102.95199132 138.32291877 C85.6346963 138.20922156 68.31736569 138.10235598 51 138 C50.57997208 136.87828903 50.15994415 135.75657806 49.72718811 134.60087585 C48.13594395 130.35180801 46.54396905 126.10301424 44.95179749 121.85429382 C44.26892667 120.03175448 43.58624181 118.20914545 42.90376282 116.38645935 C38.45738972 104.5120758 33.97735554 92.65146533 29.4375 80.8125 C28.87941686 79.35650949 28.32134195 77.90051582 27.76327515 76.44451904 C27.49948563 75.75637053 27.23569611 75.06822201 26.96391296 74.3592205 C21.73618956 60.72119161 16.57131218 47.05939866 11.41612244 33.39381409 C9.65905086 28.73814454 7.89112063 24.08677112 6.1171875 19.4375 C5.28640378 17.25002072 4.45567045 15.0625223 3.625 12.875 C3.24956055 11.89772949 2.87412109 10.92045898 2.48730469 9.91357422 C2.15375977 9.0320166 1.82021484 8.15045898 1.4765625 7.2421875 C1.18861816 6.4879248 0.90067383 5.73366211 0.60400391 4.95654297 C0 3 0 3 0 0 Z " fill="#FCFCFE" transform="translate(506,257)"/>
<path d="M0 0 C4.99166134 4.14066564 9.49550323 8.47225542 13.875 13.25 C14.48649902 13.91112793 15.09799805 14.57225586 15.72802734 15.25341797 C19.76649619 19.62869234 23.7624058 24.04124434 27.73046875 28.48046875 C30.8922306 31.99051418 34.10038519 35.45691154 37.31298828 38.92041016 C38.26046878 39.94313467 39.1974544 40.97566731 40.12450778 42.01694381 C42.03684761 44.0971296 42.03684761 44.0971296 44.46509278 46.18524373 C50.33992375 51.75612073 53.0619263 56.15297109 53.30028111 64.53133381 C53.30981249 66.75332512 53.27005954 68.97148599 53.22946167 71.19308472 C53.23669755 72.81850911 53.24831554 74.44391883 53.26390564 76.06928456 C53.29389184 80.51238912 53.2618902 84.95317119 53.2192924 89.39609218 C53.18422006 94.19652119 53.20708746 98.99672724 53.22262573 103.79721069 C53.24394156 113.19251573 53.21211922 122.58692221 53.16234921 131.98209034 C53.10640725 142.93067474 53.10380294 153.87907869 53.10346319 164.82778229 C53.10108966 184.36894132 53.05118304 203.90968863 52.97412109 223.45068359 C52.89945423 242.39669738 52.85693128 261.34241184 52.85107422 280.28857422 C52.8507086 281.45521028 52.85034297 282.62184633 52.84996627 283.823835 C52.84960833 284.98848606 52.84925039 286.15313712 52.8488816 287.35308063 C52.84815074 289.69824148 52.847406 292.04340232 52.84664726 294.38856316 C52.84627623 295.54521799 52.8459052 296.70187283 52.84552293 297.89357781 C52.83837369 315.96908713 52.80146449 334.04455048 52.76166078 352.1200129 C52.74763904 358.66245023 52.73806014 365.20487667 52.73173808 371.74732576 C52.72161915 382.1283303 52.69864681 392.50912712 52.64913748 402.890025 C52.6267655 407.63088405 52.61046058 412.37154047 52.61140442 417.11245728 C52.6120247 421.45892638 52.59397609 425.80491729 52.56146838 430.15126123 C52.55288912 431.71707965 52.55085664 433.2829518 52.55632053 434.84878419 C52.59602022 448.10405532 50.84392531 460.5737057 42 471 C40.07631415 472.85810565 38.15852615 474.40680213 36 476 C35.505 474.515 35.505 474.515 35 473 C35.99 472.67 36.98 472.34 38 472 C38 471.34 38 470.68 38 470 C38.66 470 39.32 470 40 470 C40 469.34 40 468.68 40 468 C40.99 467.34 41.98 466.68 43 466 C43.34342449 464.66923011 43.67619874 463.33568021 44 462 C44.474375 461.566875 44.94875 461.13375 45.4375 460.6875 C49.28520054 456.53198341 49.25203197 450.33986868 49.26564884 444.95812225 C49.27225614 443.94372612 49.27225614 443.94372612 49.27899691 442.90883714 C49.29127552 440.65037701 49.2894469 438.39215644 49.28761292 436.13366699 C49.29350005 434.49506553 49.30023991 432.85646694 49.30775779 431.21787214 C49.32580207 426.72076815 49.33134856 422.2237228 49.33474457 417.72658706 C49.34050925 412.87443164 49.35763528 408.02231368 49.37309265 403.17018127 C49.40781297 391.45922154 49.42342419 379.74826501 49.43721595 368.03726506 C49.4441798 362.52223188 49.45333577 357.00720243 49.46232414 351.49217224 C49.4915182 333.16167013 49.51631584 314.83117167 49.52694798 296.5006485 C49.52763867 295.32801361 49.52832936 294.15537872 49.52904099 292.94720945 C49.529733 291.77178001 49.53042502 290.59635058 49.531138 289.38530207 C49.53255 287.00345007 49.53397081 284.62159808 49.53540039 282.23974609 C49.53610556 281.05826671 49.53681073 279.87678733 49.53753727 278.65950555 C49.54979656 259.50103521 49.59261472 240.34276236 49.64834059 221.18437403 C49.70508526 201.51624705 49.73559533 181.84822003 49.73996013 162.18001032 C49.74304436 151.13620059 49.75758658 140.09266559 49.80124092 129.04893494 C49.83829473 119.6486978 49.85154838 110.24880983 49.83353604 100.84851015 C49.82506875 96.05149432 49.82799554 91.25519197 49.86135483 86.45826912 C49.89162123 82.06733268 49.88962153 77.67764004 49.86186682 73.28669792 C49.85751684 71.69795041 49.86502044 70.10911726 49.88553984 68.52049631 C50.23342542 60.15320853 50.23342542 60.15320853 47.38450038 52.54114437 C45.51942522 50.6212466 45.51942522 50.6212466 43.50118297 49.16876173 C43.00579259 48.78307036 42.51040221 48.39737899 42 48 C42 47.34 42 46.68 42 46 C41.01 45.67 40.02 45.34 39 45 C35.29699251 41.67678815 32.74503672 38.11755508 30 34 C28.84989534 32.83100676 27.69670845 31.66482696 26.52539062 30.51708984 C20.50360172 24.52806996 14.79439105 18.20785422 9 12 C8.46568359 11.42830078 7.93136719 10.85660156 7.38085938 10.26757812 C6.08098675 8.87168208 4.78999648 7.46752801 3.5 6.0625 C2.8090625 5.31097656 2.118125 4.55945313 1.40625 3.78515625 C0 2 0 2 0 0 Z " fill="#4B4EA7" transform="translate(777,289)"/>
<path d="M0 0 C2.470392 0.97676847 4.92655553 1.96777685 7.359375 3.03515625 C8.14828125 3.37417969 8.9371875 3.71320312 9.75 4.0625 C10.52859375 4.40410156 11.3071875 4.74570312 12.109375 5.09765625 C18.55973782 7.11121545 25.42256794 7.14830057 32.13524723 7.12304783 C33.29047637 7.1247786 33.29047637 7.1247786 34.46904346 7.12654433 C37.03472819 7.12917896 39.60034943 7.12471502 42.16603088 7.12025452 C44.02995869 7.12069086 45.89388645 7.12156694 47.75781387 7.12284368 C52.8681958 7.12507616 57.97855672 7.12108441 63.08893597 7.11606562 C68.60416673 7.11174341 74.11939632 7.1132088 79.6346283 7.1139679 C89.18633365 7.11449201 98.73803216 7.11135697 108.28973579 7.10573006 C122.09986264 7.0975998 135.90998619 7.09499827 149.72011518 7.09374207 C172.12664436 7.09155395 194.53317021 7.08490896 216.93969727 7.07543945 C238.70434551 7.06625185 260.46899278 7.05916979 282.23364258 7.05493164 C283.24035472 7.05473435 283.24035472 7.05473435 284.26740447 7.05453308 C291.00741785 7.05321453 297.74743124 7.05193872 304.48744463 7.05069422 C360.99163231 7.04025705 417.49581596 7.02261435 474 7 C470.38049896 10.61950104 465.32837649 10.11409699 460.42043999 10.14064401 C459.72117133 10.13944624 459.02190267 10.13824846 458.30144405 10.13701439 C457.16231447 10.14099213 457.16231447 10.14099213 456.00017217 10.14505023 C453.45281523 10.15271604 450.90550672 10.15330136 448.35813904 10.15390015 C446.51431421 10.15791655 444.67049026 10.16235507 442.82666737 10.1671797 C437.75741701 10.17913099 432.68817616 10.18479029 427.61891448 10.18936086 C422.15245623 10.19532232 416.68600931 10.2069307 411.21955872 10.21765137 C398.01758537 10.24216119 384.81560827 10.25679956 371.61361918 10.26971143 C367.8845333 10.27342412 364.15544779 10.27739728 360.42636228 10.2814641 C337.26588865 10.30669915 314.10541442 10.32875073 290.94493008 10.34119225 C285.58169489 10.34411341 280.21845974 10.34708098 274.85522461 10.35009766 C274.18893227 10.35046857 273.52263993 10.35083947 272.83615691 10.35122162 C251.23827177 10.36337441 229.64046817 10.39431601 208.04262132 10.43601918 C185.19704794 10.48005095 162.35151025 10.50572993 139.50589234 10.51111281 C127.05682954 10.51452585 114.60789543 10.52626881 102.1588726 10.55921555 C91.55733217 10.5872271 80.95594682 10.59821038 70.35437226 10.58702008 C64.94715959 10.58183656 59.54027164 10.58470082 54.13310623 10.60948563 C49.17766714 10.63200992 44.22278545 10.63121334 39.26733638 10.61228175 C37.47993999 10.60948625 35.69250555 10.61505511 33.90517025 10.63009469 C22.65480692 10.71893101 10.33304333 10.60813819 1.6875 2.1875 C1.130625 1.465625 0.57375 0.74375 0 0 Z " fill="#393DBF" transform="translate(213,822)"/>
<path d="M0 0 C1 4 1 4 -1 12 C81.17 12.495 81.17 12.495 165 13 C170 25 170 25 171 28 C171.66 28.33 172.32 28.66 173 29 C173.60453878 31.20768607 173.95581843 33.42009853 174.33984375 35.67578125 C174.86396385 38.05996748 174.86396385 38.05996748 176.4375 39.88671875 C178.45459073 42.61483396 179.14018591 45.2438952 180.0625 48.5 C181.29791197 52.94389026 181.29791197 52.94389026 183.12109375 57.15625 C184 59 184 59 184 63 C184.66 63 185.32 63 186 63 C187.60355101 66.50776784 188.22036864 69.14354879 188 73 C188.66 73 189.32 73 190 73 C190 74.65 190 76.3 190 78 C190.66 78 191.32 78 192 78 C192.25394531 78.70125 192.50789062 79.4025 192.76953125 80.125 C193.28580078 81.548125 193.28580078 81.548125 193.8125 83 C194.17601562 84.00417969 194.53953125 85.00835938 194.9140625 86.04296875 C195.80890601 88.47964694 196.73975664 90.89622362 197.6875 93.3125 C198.85354643 96.58853522 199.57001169 99.56009348 200 103 C200.66 103 201.32 103 202 103 C202.50833591 104.24663331 203.00631145 105.49749387 203.5 106.75 C203.91765625 107.79414062 203.91765625 107.79414062 204.34375 108.859375 C205 111 205 111 205 115 C205.66 115 206.32 115 207 115 C207 116.65 207 118.3 207 120 C207.66 120 208.32 120 209 120 C209 121.65 209 123.3 209 125 C209.66 125 210.32 125 211 125 C212.31626692 128.61973402 213 131.09567131 213 135 C213.66 135 214.32 135 215 135 C216.31626692 138.61973402 217 141.09567131 217 145 C217.66 145 218.32 145 219 145 C220.42258812 148.82320557 221.24042276 151.91281305 221 156 C218.72985504 152.59478256 217.30326848 149.0591314 215.79125977 145.28173828 C215.47165472 144.49093243 215.15204967 143.70012657 214.82275963 142.8853569 C213.75476567 140.24002307 212.69178704 137.59270451 211.62890625 134.9453125 C210.87079355 133.06388487 210.11245229 131.18254932 209.35389709 129.30130005 C206.89685774 123.20316761 204.44766025 117.10190205 202 111 C201.59085106 109.98024582 201.18170212 108.96049164 200.76015472 107.90983582 C194.47263358 92.23686795 188.20384148 76.55644849 181.9375 60.875 C176.018125 46.06625 170.09875 31.2575 164 16 C108.23 15.67 52.46 15.34 -5 15 C-1.625 3.75 -1.625 3.75 0 0 Z " fill="#3F41AA" transform="translate(400,612)"/>
<path d="M0 0 C0.66 0.33 1.32 0.66 2 1 C0.68 1.33 -0.64 1.66 -2 2 C-2 2.66 -2 3.32 -2 4 C-3.30628263 4.00423194 -4.61256525 4.00846388 -5.9584322 4.01282406 C-36.94600875 4.11343424 -67.93356329 4.21913095 -98.92110066 4.33111694 C-102.73263794 4.34488701 -106.54417537 4.35861404 -110.35571289 4.37231445 C-111.11454211 4.37504276 -111.87337133 4.37777106 -112.65519538 4.38058204 C-124.95249357 4.42469317 -137.24980096 4.46531436 -149.54711524 4.50465261 C-162.15921223 4.54507526 -174.77129212 4.58923253 -187.3833639 4.63687855 C-195.16973315 4.66617561 -202.95610109 4.69253703 -210.74249258 4.71517897 C-216.7065826 4.73283341 -222.67064554 4.75567626 -228.63471031 4.78049088 C-231.08614383 4.78986932 -233.53758452 4.79754173 -235.98902893 4.80341911 C-239.32486014 4.81166679 -242.6606117 4.82593978 -245.99641418 4.84178162 C-246.97597653 4.84275972 -247.95553887 4.84373783 -248.96478492 4.84474558 C-249.85554054 4.85022002 -250.74629616 4.85569446 -251.66404438 4.8613348 C-252.43449693 4.86399284 -253.20494948 4.86665089 -253.99874908 4.86938947 C-256.20882865 4.92862478 -256.20882865 4.92862478 -259 6 C-259 6.66 -259 7.32 -259 8 C-259.66 8 -260.32 8 -261 8 C-260.34 6.02 -259.68 4.04 -259 2 C-257.68340991 1.99576806 -256.36681982 1.99153612 -255.01033306 1.98717594 C-223.77838009 1.88656619 -192.54644893 1.78086955 -161.31453479 1.66888306 C-157.47295497 1.65511298 -153.63137499 1.64138596 -149.78979492 1.62768555 C-148.64257925 1.62359309 -148.64257925 1.62359309 -147.4721875 1.61941796 C-135.07789134 1.5753066 -122.68358606 1.53468549 -110.28927394 1.49534739 C-97.57773597 1.45492502 -84.86621497 1.41076779 -72.15470201 1.36312145 C-64.30691378 1.3338241 -56.45912684 1.30746273 -48.61131654 1.28482103 C-42.60022317 1.26716688 -36.58916112 1.24432404 -30.57809258 1.21950912 C-28.10730833 1.21013053 -25.63651695 1.20245817 -23.16572189 1.19658089 C-19.8036166 1.18833347 -16.44159035 1.17406057 -13.07951355 1.15821838 C-12.09216931 1.15724028 -11.10482507 1.15626217 -10.08756131 1.15525442 C-9.1898389 1.14977998 -8.29211648 1.14430554 -7.36719036 1.1386652 C-6.59066229 1.13600716 -5.81413421 1.13334911 -5.01407498 1.13061053 C-2.79318058 1.07226732 -2.79318058 1.07226732 0 0 Z " fill="#3539AD" transform="translate(684,551)"/>
<path d="M0 0 C1.17175781 0.01353516 1.17175781 0.01353516 2.3671875 0.02734375 C2.94726562 0.03894531 3.52734375 0.05054688 4.125 0.0625 C0.49799973 3.68950027 -4.56301396 3.17665656 -9.47961241 3.19350848 C-10.18259709 3.19088146 -10.88558176 3.18825445 -11.609869 3.18554783 C-12.37318348 3.18670167 -13.13649796 3.18785552 -13.92294317 3.18904433 C-16.48343064 3.19169345 -19.04385535 3.18720286 -21.6043396 3.18275452 C-23.45742864 3.18319057 -25.31051763 3.1840661 -27.16360629 3.18534368 C-32.25796312 3.187582 -37.35229897 3.18357638 -42.44665313 3.17856562 C-47.93944152 3.17425183 -53.4322287 3.17570821 -58.92501831 3.1764679 C-68.44239966 3.17699254 -77.95977415 3.17385194 -87.47715378 3.16823006 C-101.23773044 3.16010702 -114.99830379 3.15749901 -128.7588826 3.15624207 C-151.08388574 3.15405281 -173.40888568 3.14740474 -195.73388672 3.13793945 C-217.42203757 3.12875479 -239.11018744 3.12167129 -260.79833984 3.11743164 C-261.80116168 3.11723435 -261.80116168 3.11723435 -262.82424255 3.11703308 C-269.53808799 3.11571455 -276.25193343 3.11443874 -282.96577889 3.11319422 C-339.26885516 3.1027535 -395.57192738 3.08510755 -451.875 3.0625 C-451.875 2.7325 -451.875 2.4025 -451.875 2.0625 C-450.9441357 2.06076375 -450.01327141 2.0590275 -449.0541991 2.05723864 C-393.91579114 1.95430725 -338.7773954 1.84616948 -283.63901078 1.73138306 C-277.02236143 1.71761305 -270.40571199 1.70388602 -263.7890625 1.69018555 C-261.81313162 1.68609309 -261.81313162 1.68609309 -259.79728295 1.68191796 C-238.45210402 1.63781137 -217.10692007 1.5971886 -195.76173185 1.55784739 C-173.86883452 1.51741937 -151.97594703 1.47326127 -130.0830642 1.42562145 C-116.56784994 1.39632992 -103.05263643 1.36996758 -89.53740938 1.34732103 C-80.27664124 1.33152502 -71.01588513 1.31211446 -61.75513034 1.28983159 C-56.40768402 1.27707244 -51.06024696 1.26593565 -45.71278954 1.25908089 C-40.81994093 1.25277379 -35.92712426 1.24194154 -31.03429319 1.2274667 C-29.26165791 1.22302915 -27.48901748 1.22027115 -25.71637689 1.21933801 C-23.31106342 1.21782921 -20.90584241 1.21026222 -18.50054741 1.2011652 C-17.80879315 1.20218787 -17.11703889 1.20321054 -16.40432239 1.20426419 C-10.85655516 1.17263614 -5.53282432 -0.08383067 0 0 Z " fill="#4A4EAE" transform="translate(682.875,828.9375)"/>
<path d="M0 0 C6.78087633 -0.10128166 13.56155822 -0.17141525 20.34301758 -0.21972656 C22.65070891 -0.23986263 24.95834911 -0.26717356 27.26586914 -0.30175781 C30.57971808 -0.35018715 33.89289347 -0.37294884 37.20703125 -0.390625 C38.2414888 -0.41127014 39.27594635 -0.43191528 40.3417511 -0.45318604 C41.78290535 -0.45363922 41.78290535 -0.45363922 43.25317383 -0.45410156 C44.09922684 -0.46298401 44.94527985 -0.47186646 45.81697083 -0.48101807 C48 0 48 0 49.79667664 1.77838135 C51 4 51 4 51 8 C52.32 8.33 53.64 8.66 55 9 C55.28875 10.11375 55.5775 11.2275 55.875 12.375 C56.69241329 16.00291092 56.69241329 16.00291092 59 18 C59.69984225 19.93289764 60.3990461 21.86603089 61.09375 23.80078125 C62.2895068 26.70255313 63.90415331 29.1858779 65.61328125 31.80859375 C69.89545438 38.57563354 73.45994569 45.79155351 76.921875 53.00390625 C77.95666284 55.14740881 77.95666284 55.14740881 80 57 C80.625 59.625 80.625 59.625 81 62 C81.66 62 82.32 62 83 62 C84.4606285 64.64738916 85 65.89448334 85 69 C85.66 69 86.32 69 87 69 C87 69.99 87 70.98 87 72 C87.66 72 88.32 72 89 72 C90.25664978 74.90600261 91 76.79604584 91 80 C92.485 80.495 92.485 80.495 94 81 C95.31640625 83.65234375 95.31640625 83.65234375 96.5625 86.9375 C98.16603688 91.36387295 98.16603688 91.36387295 101 95 C102.02519098 96.98720493 103.02101613 98.98962924 104 101 C105.845132 104.39788761 107.70730172 107.78591368 109.57421875 111.171875 C111 114 111 114 111 116 C111.66 116 112.32 116 113 116 C113.433125 116.886875 113.86625 117.77375 114.3125 118.6875 C115.91059879 121.94653863 115.91059879 121.94653863 117.6875 124.6875 C119 127 119 127 119 130 C119.66 130 120.32 130 121 130 C121.45375 131.11375 121.9075 132.2275 122.375 133.375 C123.72465986 136.96199008 123.72465986 136.96199008 126 139 C125.625 141.125 125.625 141.125 125 143 C111.87729865 120.16217836 98.98311328 97.20928371 86.41479492 74.06054688 C82.86619801 67.54220641 79.23035916 61.07686387 75.5625 54.625 C70.50871717 45.73503989 65.58575027 36.78162169 60.75219727 27.77001953 C59.74605353 25.89785521 58.71438846 24.03922136 57.65991211 22.19384766 C56.36072936 19.6940817 55.38896216 17.39914805 54.43579102 14.77099609 C52.63814849 10.2601592 50.84646225 6.11404189 47 3 C39.56057986 0.27004836 31.21325394 1.17676935 23.4375 1.5 C21.26246551 1.53206917 19.08731118 1.55688125 16.91210938 1.57421875 C11.60380202 1.63226832 6.30396364 1.78069583 1 2 C1.3081665 2.56509277 1.61633301 3.13018555 1.93383789 3.71240234 C3.31836283 6.26219424 4.69054467 8.81842461 6.0625 11.375 C6.54783203 12.26445313 7.03316406 13.15390625 7.53320312 14.0703125 C7.98759766 14.92109375 8.44199219 15.771875 8.91015625 16.6484375 C9.33433838 17.43395996 9.75852051 18.21948242 10.19555664 19.02880859 C10.5937561 20.00454834 10.5937561 20.00454834 11 21 C10.67 21.66 10.34 22.32 10 23 C8.31580695 20.1140277 6.65589303 17.2147882 5 14.3125 C4.28457031 13.08756836 4.28457031 13.08756836 3.5546875 11.83789062 C2.87792969 10.64389648 2.87792969 10.64389648 2.1875 9.42578125 C1.76855469 8.69786377 1.34960938 7.96994629 0.91796875 7.2199707 C-0.14088195 4.659298 -0.06669834 2.74504456 0 0 Z " fill="#3F42A9" transform="translate(634,625)"/>
<path d="M0 0 C4.37838651 4.37838651 3.15998842 13.47408377 3.16796875 19.40625 C3.17129715 20.28921753 3.17462555 21.17218506 3.17805481 22.08190918 C3.18309254 23.94424931 3.18546412 25.80659837 3.18530273 27.66894531 C3.18747233 30.46435163 3.2056153 33.25935166 3.22460938 36.0546875 C3.28598553 55.5618037 0.86039093 74.60682225 -4.5625 93.375 C-4.77237549 94.10710693 -4.98225098 94.83921387 -5.19848633 95.59350586 C-6.74864018 100.74864018 -6.74864018 100.74864018 -9 103 C-8.86722656 102.443125 -8.73445312 101.88625 -8.59765625 101.3125 C-7.41779695 96.2141299 -6.56750461 91.20212559 -6 86 C-5.34 86 -4.68 86 -4 86 C-3.93941406 85.07316406 -3.87882813 84.14632812 -3.81640625 83.19140625 C-3.73261719 81.99386719 -3.64882813 80.79632812 -3.5625 79.5625 C-3.48128906 78.36753906 -3.40007813 77.17257812 -3.31640625 75.94140625 C-3 73 -3 73 -2 72 C-2 69.96994518 -2.00357588 67.93935573 -2.0625 65.91015625 C-2 64 -2 64 -1 62 C0.46131743 48.73800498 0.11739021 35.31864446 0.0625 22 C0.05747123 19.85677189 0.05291078 17.71354262 0.04882812 15.5703125 C0.0379402 10.38017927 0.02075275 5.19010278 0 0 Z " fill="#3E41AA" transform="translate(759,479)"/>
<path d="M0 0 C0 0.66 0 1.32 0 2 C-0.66386719 2.10957031 -1.32773437 2.21914062 -2.01171875 2.33203125 C-6.96583056 3.22160169 -10.78726268 4.10374309 -15 7 C-15.66 7 -16.32 7 -17 7 C-17.38091797 7.89912109 -17.38091797 7.89912109 -17.76953125 8.81640625 C-19.14403306 11.25560152 -20.45209573 12.28180765 -22.6875 13.9375 C-29.12058893 19.34927736 -33.77501609 27.65770454 -35 36 C-35.66 36 -36.32 36 -37 36 C-37.12117188 36.67546875 -37.24234375 37.3509375 -37.3671875 38.046875 C-37.53476562 38.93890625 -37.70234375 39.8309375 -37.875 40.75 C-38.03742188 41.63171875 -38.19984375 42.5134375 -38.3671875 43.421875 C-38.96796264 45.86947744 -39.77997117 47.80599857 -41 50 C-41.66 50 -42.32 50 -43 50 C-43.12375 50.680625 -43.2475 51.36125 -43.375 52.0625 C-44.09100877 55.4277412 -45.02945125 58.70013425 -46 62 C-46.66 62 -47.32 62 -48 62 C-48.99 65.96 -49.98 69.92 -51 74 C-51.66 74 -52.32 74 -53 74 C-53 74.66 -53 75.32 -53 76 C-53.66 76 -54.32 76 -55 76 C-52.40432307 67.53828063 -48.87858142 59.52227095 -45.3125 51.4375 C-44.99908661 50.72512177 -44.68567322 50.01274353 -44.36276245 49.27877808 C-26.80246807 9.4115722 -26.80246807 9.4115722 -9.25 1.0625 C-5.95360802 -0.01516661 -3.44238808 -0.25188205 0 0 Z " fill="#4244AA" transform="translate(456,217)"/>
<path d="M0 0 C0.99 0 1.98 0 3 0 C3 1.65 3 3.3 3 5 C3.66 5 4.32 5 5 5 C5.33 7.64 5.66 10.28 6 13 C6.66 13 7.32 13 8 13 C8.33 15.64 8.66 18.28 9 21 C9.66 21 10.32 21 11 21 C11 22.65 11 24.3 11 26 C11.99 26.33 12.98 26.66 14 27 C15.72091657 30.92368977 16.90174496 34.57890696 17.875 38.75 C19.11635599 44.06555001 21.09398488 52.09398488 25 56 C25.04063832 57.66617115 25.042721 59.33388095 25 61 C25.66 61 26.32 61 27 61 C27.18175781 61.66386719 27.36351562 62.32773437 27.55078125 63.01171875 C28.91599643 67.80747465 30.35874637 71.75102677 33 76 C33.72166191 78.31691454 34.40059529 80.64848923 35 83 C34.01 83.495 34.01 83.495 33 84 C24.41953327 62.59697147 15.84230072 41.19256508 7.36331177 19.74908447 C6.7042825 18.08263683 6.04467521 16.41641766 5.38449097 14.75042725 C4.47069891 12.44368953 3.55918219 10.13606727 2.6484375 7.828125 C2.37744736 7.14487152 2.10645721 6.46161804 1.82725525 5.75765991 C0 1.11479265 0 1.11479265 0 0 Z " fill="#4244AA" transform="translate(466,384)"/>
<path d="M0 0 C2.12123455 3.18185183 3.29674303 6.13569062 4.65234375 9.7109375 C4.90857513 10.38351593 5.16480652 11.05609436 5.42880249 11.74905396 C6.2686876 13.95633472 7.10321257 16.16559804 7.9375 18.375 C8.51622803 19.90050149 9.09525107 21.4258911 9.67456055 22.95117188 C10.86327486 26.08233508 12.04989529 29.21428168 13.23535156 32.34667969 C14.91436331 36.77953819 16.60809013 41.20666147 18.3046875 45.6328125 C19.06509098 47.62088638 19.82505688 49.60912669 20.58474731 51.59747314 C21.069003 52.86343818 21.55424939 54.12902471 22.04049683 55.39422607 C22.71369896 57.14704378 23.3823621 58.90160278 24.05078125 60.65625 C24.42887939 61.64431641 24.80697754 62.63238281 25.1965332 63.65039062 C26 66 26 66 26 68 C24.515 68.495 24.515 68.495 23 69 C21.66666667 63.66666667 20.33333333 58.33333333 19 53 C18.34 53 17.68 53 17 53 C16.75121094 51.7109375 16.50242187 50.421875 16.24609375 49.09375 C15.09976547 43.93980968 13.20140895 39.31156398 11.0625 34.5 C8.3843619 28.40835379 6.03339212 22.33592111 4 16 C3.42185547 14.33517578 3.42185547 14.33517578 2.83203125 12.63671875 C2.49558594 11.66347656 2.15914062 10.69023437 1.8125 9.6875 C1.46832031 8.70136719 1.12414062 7.71523438 0.76953125 6.69921875 C0 4 0 4 0 0 Z " fill="#4A4DAE" transform="translate(510,271)"/>
<path d="M0 0 C1.01451745 3.5046551 0.90401378 4.89745084 -0.75 8.1875 C-2.59760549 12.05472943 -4.03298205 15.90277458 -5.33984375 19.98046875 C-6.11982827 22.36657524 -7.02936401 24.68540649 -8 27 C-8.66 27 -9.32 27 -10 27 C-10.268125 28.010625 -10.53625 29.02125 -10.8125 30.0625 C-11.69548566 33.15603719 -12.84103458 36.04383445 -14.14453125 38.98828125 C-19.44157953 51.44481031 -21.38340725 62.62967294 -22 76 C-24.22825237 72.65762144 -24.29690512 71.47681505 -24.3125 67.5625 C-24.32925781 66.61503906 -24.34601563 65.66757812 -24.36328125 64.69140625 C-23.40223922 54.92597913 -20.03350068 46.02863136 -16.11328125 37.109375 C-15.65140915 36.03874817 -15.18953705 34.96812134 -14.71366882 33.86505127 C-13.25516893 30.48958424 -11.78409288 27.11977637 -10.3125 23.75 C-9.31361176 21.44437475 -8.31555708 19.13838817 -7.31835938 16.83203125 C-4.88851736 11.21714521 -2.44836207 5.60683327 0 0 Z " fill="#4345AA" transform="translate(219,717)"/>
<path d="M0 0 C1.65 0 3.3 0 5 0 C8 6.5 8 6.5 8 11 C8.66 11 9.32 11 10 11 C9.67 12.32 9.34 13.64 9 15 C7.37723842 12.56585763 6.38255208 10.68680554 5.375 8 C4.98441406 6.9790625 4.98441406 6.9790625 4.5859375 5.9375 C4 4 4 4 4 1 C3.34 1 2.68 1 2 1 C1.85485962 1.97743164 1.85485962 1.97743164 1.70678711 2.97460938 C0.77311101 6.97119458 -0.74638225 10.61832991 -2.30859375 14.40625 C-2.63537613 15.20857056 -2.96215851 16.01089111 -3.29884338 16.83752441 C-4.3409158 19.39339923 -5.38908182 21.94672256 -6.4375 24.5 C-7.13908179 26.21728051 -7.840258 27.93472677 -8.54101562 29.65234375 C-9.82876627 32.8076848 -11.11906832 35.9619578 -12.41186523 39.11523438 C-13.62264143 42.07104004 -14.82009416 45.0317019 -16 48 C-16.33 48 -16.66 48 -17 48 C-16.88490339 46.58249437 -16.75746342 45.16598831 -16.625 43.75 C-16.55539062 42.96109375 -16.48578125 42.1721875 -16.4140625 41.359375 C-15.98492887 38.914123 -15.21399362 37.15163097 -14 35 C-13.34 35 -12.68 35 -12 35 C-12 32.69 -12 30.38 -12 28 C-11.01 27.67 -10.02 27.34 -9 27 C-8.91363281 26.41734375 -8.82726562 25.8346875 -8.73828125 25.234375 C-7.50007916 18.00963622 -5.00118848 11.66676219 -2 5 C-1.34 5 -0.68 5 0 5 C0 3.35 0 1.7 0 0 Z " fill="#3F43AF" transform="translate(457,368)"/>
<path d="M0 0 C0.99 0.33 1.98 0.66 3 1 C3.06058594 1.63808594 3.12117187 2.27617187 3.18359375 2.93359375 C3.30927734 4.17302734 3.30927734 4.17302734 3.4375 5.4375 C3.51871094 6.26121094 3.59992187 7.08492188 3.68359375 7.93359375 C3.78930815 9.98662025 3.78930815 9.98662025 5 11 C5.77949269 24.39639769 5.06563937 38.79763954 -1 51 C-1.99 51.495 -1.99 51.495 -3 52 C-3.28875 52.763125 -3.5775 53.52625 -3.875 54.3125 C-5.20059466 57.47919835 -6.2288122 58.95807215 -9 61 C-11.70219942 61.62119527 -14.21593567 61.81439571 -17 62 C-16.484375 61.62875 -15.96875 61.2575 -15.4375 60.875 C-14.633125 60.25625 -13.82875 59.6375 -13 59 C-12.18402344 58.41412109 -12.18402344 58.41412109 -11.3515625 57.81640625 C-6.04440247 53.72595321 -3.46373559 49.17287599 -1 43 C-0.67902344 42.20078125 -0.35804688 41.4015625 -0.02734375 40.578125 C1.98781741 34.54201435 2.27518934 28.6817245 2.3125 22.375 C2.31805908 21.58746338 2.32361816 20.79992676 2.3293457 19.98852539 C2.2701135 15.13604125 1.64596767 10.72809581 0.42651367 6.02978516 C0 4 0 4 0 0 Z " fill="#4042AD" transform="translate(703,489)"/>
<path d="M0 0 C0.33 0.99 0.66 1.98 1 3 C-0.42080924 5.78833813 -2.07714302 8.37191352 -3.75 11.015625 C-5.43208269 15.03159742 -5.16371517 16.7815325 -4 21 C-2.19774126 24.90589855 -0.11592938 28.63170596 2 32.375 C3.18011444 34.51018075 4.35979909 36.6455991 5.5390625 38.78125 C6.12333008 39.83054687 6.70759766 40.87984375 7.30957031 41.9609375 C9.69504932 46.24956296 12.048693 50.5540368 14.375 54.875 C14.76171875 55.57544434 15.1484375 56.27588867 15.546875 56.99755859 C16.42650346 58.63322109 17.22309245 60.31312339 18 62 C17.67 62.66 17.34 63.32 17 64 C13 58.25 13 58.25 13 56 C12.34 56 11.68 56 11 56 C10.35309078 54.3962669 9.70751236 52.79199694 9.0625 51.1875 C8.70285156 50.29417969 8.34320312 49.40085937 7.97265625 48.48046875 C7.26386514 46.6729091 6.6139753 44.84192591 6 43 C5.34 43 4.68 43 4 43 C3.63648438 42.03900391 3.63648438 42.03900391 3.265625 41.05859375 C1.64836702 36.88482412 0.03394298 32.85823226 -2.25 29 C-4 26 -4 26 -4 24 C-4.66 24 -5.32 24 -6 24 C-6.44455628 22.08960948 -6.85473053 20.17119345 -7.25 18.25 C-7.48203125 17.18265625 -7.7140625 16.1153125 -7.953125 15.015625 C-8 12 -8 12 -6.1875 9.875 C-5.465625 9.25625 -4.74375 8.6375 -4 8 C-2.71219705 5.90099868 -2.71219705 5.90099868 -1.75 3.75 C-1.41484375 3.04359375 -1.0796875 2.3371875 -0.734375 1.609375 C-0.49203125 1.07828125 -0.2496875 0.5471875 0 0 Z " fill="#484BAC" transform="translate(749,582)"/>
<path d="M0 0 C0.66 0.33 1.32 0.66 2 1 C1.57702637 2.01199463 1.15405273 3.02398926 0.71826172 4.06665039 C-0.88200185 7.89625199 -2.48075562 11.72648247 -4.07910156 15.55688477 C-4.76522657 17.20060582 -5.4517369 18.8441661 -6.13867188 20.48754883 C-10.51470973 30.95741134 -14.82224857 41.44925718 -19 52 C-19.33 52 -19.66 52 -20 52 C-20 50.02 -20 48.04 -20 46 C-19.34 46 -18.68 46 -18 46 C-17.87625 44.7625 -17.7525 43.525 -17.625 42.25 C-17.24253695 39.1237803 -16.69450477 36.71120763 -15 34 C-14.34 34 -13.68 34 -13 34 C-12.97421875 33.43152344 -12.9484375 32.86304688 -12.921875 32.27734375 C-12.86515625 31.50519531 -12.8084375 30.73304688 -12.75 29.9375 C-12.68039062 28.80634766 -12.68039062 28.80634766 -12.609375 27.65234375 C-11.93103187 24.69981178 -10.62370484 22.49416645 -9.06933594 19.91577148 C-7.23101842 16.62232912 -6.0204724 13.10491411 -4.75 9.5625 C-4.481875 8.83095703 -4.21375 8.09941406 -3.9375 7.34570312 C-3.28604973 5.56584792 -2.64221224 3.78320931 -2 2 C-1.34 2 -0.68 2 0 2 C0 1.34 0 0.68 0 0 Z " fill="#4446AE" transform="translate(392,529)"/>
<path d="M0 0 C2.93343972 2.55690536 4.4424864 5.44387892 6.21484375 8.8828125 C6.81876953 10.05070313 7.42269531 11.21859375 8.04492188 12.421875 C8.3561499 13.03095703 8.66737793 13.64003906 8.98803711 14.26757812 C9.9252114 16.10095996 10.87096715 17.92969365 11.81835938 19.7578125 C22.1221017 39.71648885 22.1221017 39.71648885 22.1875 50.0625 C22.20167969 51.08472656 22.21585938 52.10695313 22.23046875 53.16015625 C22 56 22 56 20 60 C20 54.39 20 48.78 20 43 C19.34 43 18.68 43 18 43 C17.34 39.04 16.68 35.08 16 31 C15.34 31 14.68 31 14 31 C13.67128906 30.10861328 13.67128906 30.10861328 13.3359375 29.19921875 C11.06046099 23.25153016 8.34123239 17.7728406 5.171875 12.25 C4 10 4 10 4 8 C3.34 8 2.68 8 2 8 C1.34 5.36 0.68 2.72 0 0 Z " fill="#4C50AD" transform="translate(693,739)"/>
<path d="M0 0 C12.55995131 0.21655088 24.13346178 7.46296151 33 16 C38.98805552 22.39109772 43.52826372 28.95743506 47 37 C46.01 37.33 45.02 37.66 44 38 C43.81566406 37.39414062 43.63132812 36.78828125 43.44140625 36.1640625 C41.14909064 29.54181741 37.91487506 25.2155038 33.0234375 20.2265625 C31.17881222 18.19676248 30.06385322 16.50520273 29 14 C28.01 14 27.02 14 26 14 C25.484375 13.4225 24.96875 12.845 24.4375 12.25 C21.33791081 9.38884075 18.17527675 8.34186495 14.2421875 6.9296875 C12 6 12 6 10 4 C7.57284794 3.32059533 7.57284794 3.32059533 4.875 2.875 C3.96492187 2.70742188 3.05484375 2.53984375 2.1171875 2.3671875 C1.41851563 2.24601562 0.71984375 2.12484375 0 2 C0 1.34 0 0.68 0 0 Z " fill="#4447AB" transform="translate(701,397)"/>
<path d="M0 0 C0.99 0.33 1.98 0.66 3 1 C-3.98801217 17.67172042 -10.97654661 34.34316946 -18 51 C-19.18414294 47.44757118 -18.69535532 46.30169438 -17.5625 42.8125 C-17.27503906 41.91144531 -16.98757813 41.01039063 -16.69140625 40.08203125 C-16.46324219 39.39496094 -16.23507812 38.70789063 -16 38 C-15.34 38 -14.68 38 -14 38 C-13.67 34.7 -13.34 31.4 -13 28 C-12.34 28 -11.68 28 -11 28 C-10.67 26.68 -10.34 25.36 -10 24 C-9.34 24 -8.68 24 -8 24 C-7.90847656 23.20335937 -7.81695312 22.40671875 -7.72265625 21.5859375 C-6.80366698 17.02576372 -5.17100189 12.92957697 -3.4375 8.625 C-2.9434668 7.37783203 -2.9434668 7.37783203 -2.43945312 6.10546875 C-1.63155238 4.06815382 -0.8182989 2.03315558 0 0 Z " fill="#4245B0" transform="translate(315,713)"/>
<path d="M0 0 C4.99166134 4.14066564 9.49550323 8.47225542 13.875 13.25 C14.48649902 13.91112793 15.09799805 14.57225586 15.72802734 15.25341797 C19.75651059 19.61787395 23.74447269 24.0178178 27.69921875 28.44921875 C29.50005346 30.44572989 31.31473642 32.42478199 33.14453125 34.39453125 C33.96219971 35.2750415 33.96219971 35.2750415 34.79638672 36.17333984 C35.86781185 37.32509795 36.9409784 38.47523923 38.01611328 39.62353516 C40.22920169 42.00309805 42.19277995 44.28916993 44 47 C43.01 47.495 43.01 47.495 42 48 C42 47.34 42 46.68 42 46 C41.01 45.67 40.02 45.34 39 45 C35.29699251 41.67678815 32.74503672 38.11755508 30 34 C28.84989534 32.83100676 27.69670845 31.66482696 26.52539062 30.51708984 C20.50360172 24.52806996 14.79439105 18.20785422 9 12 C8.46568359 11.42830078 7.93136719 10.85660156 7.38085938 10.26757812 C6.08098675 8.87168208 4.78999648 7.46752801 3.5 6.0625 C2.8090625 5.31097656 2.118125 4.55945313 1.40625 3.78515625 C0 2 0 2 0 0 Z " fill="#4549A8" transform="translate(777,289)"/>
<path d="M0 0 C0.33 0 0.66 0 1 0 C1.01030746 0.91153336 1.02061493 1.82306671 1.03123474 2.76222229 C1.12937196 11.36904726 1.2319089 19.9758063 1.33933926 28.58252048 C1.39441108 33.00689369 1.44780509 37.43127367 1.49731445 41.85571289 C1.54519121 46.12866114 1.5975409 50.40153369 1.65294075 54.67439079 C1.67325916 56.30137169 1.69198887 57.92837325 1.70907402 59.55539131 C1.73335253 61.841121 1.76337258 64.12671071 1.79467773 66.41235352 C1.81022202 67.71141129 1.8257663 69.01046906 1.84178162 70.34889221 C1.99933544 73.98466443 2.42233885 77.41217548 3 81 C3.66 81 4.32 81 5 81 C5.99 84.465 5.99 84.465 7 88 C2.9145929 84.61897343 1.4031899 80.9825508 0 76 C-0.25457622 73.28512335 -0.38331474 70.81722175 -0.34057617 68.11523438 C-0.34123329 67.00157501 -0.34123329 67.00157501 -0.34190369 65.86541748 C-0.33983405 63.44124921 -0.31659111 61.01779559 -0.29296875 58.59375 C-0.28736627 56.90124896 -0.28309925 55.20874302 -0.28010559 53.51623535 C-0.26870812 49.08400801 -0.23928546 44.65208045 -0.20599365 40.2199707 C-0.17518225 35.68835504 -0.1615767 31.15669045 -0.14648438 26.625 C-0.11441035 17.74986904 -0.06327641 8.87495955 0 0 Z " fill="#31339D" transform="translate(698,257)"/>
<path d="M0 0 C2.84488153 3.49943152 4.8780985 7.3529299 6.94921875 11.3359375 C7.32552933 12.05173981 7.7018399 12.76754211 8.08955383 13.5050354 C9.29218853 15.79330026 10.49026649 18.08390517 11.6875 20.375 C13.25082535 23.36360588 14.81739107 26.35047929 16.38671875 29.3359375 C16.76867401 30.06544617 17.15062927 30.79495483 17.54415894 31.54656982 C19.42532991 35.11565954 21.35158591 38.64250795 23.40087891 42.11816406 C23.77872025 42.76032867 24.15656158 43.40249329 24.54585266 44.06411743 C25.57885654 45.80348002 26.62647216 47.53414103 27.67504883 49.26416016 C29 52 29 52 28 55 C25.61249076 52.86450562 24.49186438 51.1596327 23.5 48.125 C22.34384258 44.79722414 20.85524825 42.00373527 19 39 C19 38.34 19 37.68 19 37 C18.34 37 17.68 37 17 37 C16.46246094 35.65808594 16.46246094 35.65808594 15.9140625 34.2890625 C12.92400095 27.30756743 9.13992335 20.67662386 5.5625 13.984375 C4.99273438 12.90414062 4.42296875 11.82390625 3.8359375 10.7109375 C3.05549072 9.24599854 3.05549072 9.24599854 2.25927734 7.75146484 C1.05913853 5.12921505 0.42778449 2.84046313 0 0 Z " fill="#474AA8" transform="translate(646,649)"/>
<path d="M0 0 C0.87840996 3.09720845 0.99435406 4.90645403 0 8 C-0.66 8 -1.32 8 -2 8 C-2.12117187 8.75925781 -2.24234375 9.51851562 -2.3671875 10.30078125 C-2.61855469 11.79158203 -2.61855469 11.79158203 -2.875 13.3125 C-3.03742188 14.29863281 -3.19984375 15.28476562 -3.3671875 16.30078125 C-4 19 -4 19 -6 22 C-6.66 22 -7.32 22 -8 22 C-7.95875 23.093125 -7.9175 24.18625 -7.875 25.3125 C-8 29 -8 29 -10 32 C-10.66 32 -11.32 32 -12 32 C-12.66 34.97 -13.32 37.94 -14 41 C-14.99 40.67 -15.98 40.34 -17 40 C-5.10561282 11.84846857 -5.10561282 11.84846857 0 0 Z " fill="#4445B0" transform="translate(243,661)"/>
<path d="M0 0 C3.22758526 3.22758526 2.95194281 7.67788774 3.04275513 12.06591797 C3.02100275 14.19203162 2.95821427 16.31277178 2.87890625 18.4375 C2.85529526 19.20304199 2.83168427 19.96858398 2.80735779 20.75732422 C2.73156654 23.17177923 2.64718612 25.58584232 2.5625 28 C2.50919433 29.64972122 2.45645473 31.29946084 2.40429688 32.94921875 C2.27606797 36.96638795 2.14014207 40.98322948 2 45 C1.01 45.495 1.01 45.495 0 46 C0 30.82 0 15.64 0 0 Z " fill="#4146BC" transform="translate(759,479)"/>
<path d="M0 0 C0.97591583 3.38317487 0.85856655 5.5657338 0 9 C-0.66 9 -1.32 9 -2 9 C-2.12375 10.11375 -2.2475 11.2275 -2.375 12.375 C-3 16 -3 16 -5 18 C-5.6779731 19.45564814 -6.29518513 20.94004424 -6.875 22.4375 C-7.21789062 23.32050781 -7.56078125 24.20351563 -7.9140625 25.11328125 C-9.64993736 29.72771118 -11.34070851 34.35751422 -13 39 C-13.66 39 -14.32 39 -15 39 C-15 40.65 -15 42.3 -15 44 C-15.99 43.67 -16.98 43.34 -18 43 C-17.55515259 41.95211304 -17.55515259 41.95211304 -17.10131836 40.88305664 C-11.33080125 27.28375592 -5.58170215 13.67802779 0 0 Z " fill="#4547AC" transform="translate(262,616)"/>
<path d="M0 0 C1.34931697 4.28172316 0.13774845 7.2028865 -1.4375 11.25 C-1.68048828 11.8996875 -1.92347656 12.549375 -2.17382812 13.21875 C-2.77285994 14.81616817 -3.38514321 16.40860594 -4 18 C-4.66 18 -5.32 18 -6 18 C-6.1546875 18.9590625 -6.1546875 18.9590625 -6.3125 19.9375 C-7.23903073 24.06477326 -8.61660629 28.00642949 -10 32 C-10.66 32 -11.32 32 -12 32 C-12.12117188 32.61488281 -12.24234375 33.22976563 -12.3671875 33.86328125 C-12.61855469 35.07564453 -12.61855469 35.07564453 -12.875 36.3125 C-13.03742188 37.11300781 -13.19984375 37.91351562 -13.3671875 38.73828125 C-14 41 -14 41 -16 44 C-16.66 44 -17.32 44 -18 44 C-16.64741551 39.77168603 -15.08412293 35.71376678 -13.3203125 31.640625 C-12.80339844 30.44179688 -12.28648437 29.24296875 -11.75390625 28.0078125 C-11.2111203 26.75512911 -10.66815057 25.50252534 -10.125 24.25 C-6.64348792 16.20730644 -3.19271224 8.16256704 0 0 Z " fill="#4648AC" transform="translate(289,553)"/>
<path d="M0 0 C1.11230438 3.77732553 0.69261087 5.61711635 -0.75 9.3125 C-1.12511719 10.28316406 -1.50023437 11.25382812 -1.88671875 12.25390625 C-3.213353 15.52627073 -4.57156608 18.77049721 -6 22 C-6.45375 23.093125 -6.9075 24.18625 -7.375 25.3125 C-9.04099021 29.22048767 -10.97737912 32.98615804 -12.9140625 36.765625 C-14.09945002 39.081226 -14.09945002 39.081226 -15 42 C-15.66 42 -16.32 42 -17 42 C-14.25862735 33.04213175 -10.49999246 24.53552316 -6.8125 15.9375 C-6.15136903 14.38881001 -5.49055898 12.83998298 -4.83007812 11.29101562 C-3.22375005 7.52575257 -1.61308247 3.76237405 0 0 Z " fill="#4949AA" transform="translate(390,317)"/>
<path d="M0 0 C2.5654594 2.5654594 2.54046087 4.47686668 3 8 C3.66 8 4.32 8 5 8 C5.33 10.64 5.66 13.28 6 16 C6.66 16 7.32 16 8 16 C8.33 18.64 8.66 21.28 9 24 C9.66 24 10.32 24 11 24 C12.03411477 26.74564964 13.05251157 29.4954861 14.0625 32.25 C14.35705078 33.02730469 14.65160156 33.80460937 14.95507812 34.60546875 C15.22900391 35.35957031 15.50292969 36.11367188 15.78515625 36.890625 C16.04176025 37.58188477 16.29836426 38.27314453 16.56274414 38.98535156 C17.06952056 41.32031471 16.74214139 42.75375603 16 45 C14.06048342 40.0197775 12.12162333 35.03930009 10.18334961 30.05859375 C9.52499781 28.36711866 8.86647216 26.67571122 8.20776367 24.984375 C7.25653193 22.54184807 6.3059426 20.09907194 5.35546875 17.65625 C5.0647197 16.91008423 4.77397064 16.16391846 4.47441101 15.3951416 C2.61342429 10.60989057 0.79446949 5.81060429 -1 1 C-0.67 0.67 -0.34 0.34 0 0 Z " fill="#4244AA" transform="translate(501,469)"/>
<path d="M0 0 C1.06615385 3.19846156 0.95342597 4.30260922 0.25 7.5 C0.01023437 8.66015625 0.01023437 8.66015625 -0.234375 9.84375 C-1.09709213 12.27344314 -2.14345792 13.25800036 -4 15 C-5.54053362 18.26593127 -6.83972404 21.49780199 -7.9375 24.9375 C-9.06633665 28.19120564 -10.50528106 31.12142452 -12.09765625 34.16796875 C-13.12524215 36.14990796 -13.12524215 36.14990796 -14 39 C-14.66 39 -15.32 39 -16 39 C-13.40433638 30.53832401 -9.86404519 22.52813981 -6.3125 14.4375 C-5.6995152 13.03335787 -5.08688215 11.62906213 -4.47460938 10.22460938 C-2.98712342 6.81462598 -1.49489052 3.40674496 0 0 Z " fill="#4143AE" transform="translate(321,479)"/>
<path d="M0 0 C5.17589184 4.28441433 9.82264128 8.81360064 14.375 13.75 C15.02476807 14.45084717 15.67453613 15.15169434 16.34399414 15.8737793 C17.6359554 17.26945709 18.92612952 18.66679171 20.21435547 20.06591797 C21.79081474 21.77342553 23.37869148 23.46901871 24.97265625 25.16015625 C26.19275391 26.47306641 26.19275391 26.47306641 27.4375 27.8125 C28.13746094 28.56144531 28.83742188 29.31039062 29.55859375 30.08203125 C31 32 31 32 31 35 C28.49195282 32.54976242 25.9949924 30.08852402 23.5 27.625 C22.78457031 26.92632812 22.06914063 26.22765625 21.33203125 25.5078125 C20.65527344 24.8375 19.97851562 24.1671875 19.28125 23.4765625 C18.65283203 22.85861816 18.02441406 22.24067383 17.37695312 21.60400391 C16 20 16 20 16 18 C15.34 18 14.68 18 14 18 C14 17.34 14 16.68 14 16 C13.34 16 12.68 16 12 16 C11 14.33333333 10 12.66666667 9 11 C6.63631642 8.51510187 4.17833957 6.1686996 1.6875 3.8125 C0 2 0 2 0 0 Z " fill="#4649A8" transform="translate(711,217)"/>
<path d="M0 0 C0.66 0.99 1.32 1.98 2 3 C1.10007108 5.85283201 0.10983408 8.44036058 -1.0859375 11.16796875 C-1.42170807 11.96278152 -1.75747864 12.7575943 -2.10342407 13.57649231 C-3.18110406 16.11918795 -4.27773903 18.65320122 -5.375 21.1875 C-6.10803185 22.9076663 -6.839819 24.62836359 -7.5703125 26.34960938 C-9.36581186 30.57270802 -11.17835512 34.78811709 -13 39 C-14.09658936 35.71023192 -13.79953138 34.28696233 -13 31 C-12.34 31 -11.68 31 -11 31 C-10.855625 29.906875 -10.71125 28.81375 -10.5625 27.6875 C-10 24 -10 24 -9 21 C-8.34 21 -7.68 21 -7 21 C-5.56115664 16.76980052 -4.1558363 12.55001047 -2.9375 8.25 C-2.11603872 5.40226758 -1.15630899 2.72558547 0 0 Z " fill="#4245AD" transform="translate(370,580)"/>
<path d="M0 0 C1.76224539 5.71167478 -0.78680918 10.68834203 -3 16 C-3.33 16.99 -3.66 17.98 -4 19 C-4.66 19 -5.32 19 -6 19 C-8.40990104 25.88824069 -8.40990104 25.88824069 -10 33 C-10.66 33 -11.32 33 -12 33 C-12 33.99 -12 34.98 -12 36 C-12.66 36 -13.32 36 -14 36 C-11.51463577 28.13674867 -8.45292227 20.55960875 -5.3125 12.9375 C-4.79595529 11.67784451 -4.2796773 10.41807962 -3.76367188 9.15820312 C-2.51172398 6.1043863 -1.25710616 3.05169618 0 0 Z " fill="#4849AC" transform="translate(415,576)"/>
<path d="M0 0 C1.36537712 4.09613136 0.14260992 5.6942508 -1.52734375 9.63671875 C-1.79511124 10.27615921 -2.06287872 10.91559967 -2.33876038 11.57441711 C-3.19610039 13.6160006 -4.06658152 15.65167706 -4.9375 17.6875 C-5.52105642 19.07059505 -6.10374956 20.45405468 -6.68554688 21.83789062 C-8.11370466 25.2295481 -9.55370065 28.61603239 -11 32 C-12.63368652 27.09894045 -11.54088797 23.18995354 -9.4375 18.5625 C-8.963125 17.716875 -8.48875 16.87125 -8 16 C-7.34 16 -6.68 16 -6 16 C-5.79503906 15.15695312 -5.59007812 14.31390625 -5.37890625 13.4453125 C-4.97478516 11.80175781 -4.97478516 11.80175781 -4.5625 10.125 C-4.29566406 9.03445313 -4.02882813 7.94390625 -3.75390625 6.8203125 C-3 4 -3 4 -2 2 C-1.34 2 -0.68 2 0 2 C0 1.34 0 0.68 0 0 Z " fill="#4346AE" transform="translate(412,481)"/>
<path d="M0 0 C1.356642 4.06992599 0.18198447 5.63964776 -1.45703125 9.56640625 C-1.72005539 10.20110336 -1.98307953 10.83580048 -2.2540741 11.48973083 C-2.81206632 12.83057998 -3.37471544 14.16949924 -3.94165039 15.5065918 C-4.80887599 17.55394442 -5.66041847 19.60728486 -6.50976562 21.66210938 C-10.70760152 31.70760152 -10.70760152 31.70760152 -13 34 C-13 32.02 -13 30.04 -13 28 C-12.34 28 -11.68 28 -11 28 C-11 26.68 -11 25.36 -11 24 C-10.34 24 -9.68 24 -9 24 C-8.67 21.36 -8.34 18.72 -8 16 C-7.34 16 -6.68 16 -6 16 C-5.79503906 15.15695312 -5.59007812 14.31390625 -5.37890625 13.4453125 C-4.97478516 11.80175781 -4.97478516 11.80175781 -4.5625 10.125 C-4.29566406 9.03445313 -4.02882813 7.94390625 -3.75390625 6.8203125 C-3 4 -3 4 -2 2 C-1.34 2 -0.68 2 0 2 C0 1.34 0 0.68 0 0 Z " fill="#4447AD" transform="translate(426,447)"/>
<path d="M0 0 C0.33 0 0.66 0 1 0 C0.85892253 1.45880109 0.71197585 2.91703551 0.5625 4.375 C0.48128906 5.18710937 0.40007812 5.99921875 0.31640625 6.8359375 C0 9 0 9 -1 11 C-1.66 11 -2.32 11 -3 11 C-3 12.98 -3 14.96 -3 17 C-3.66 17.33 -4.32 17.66 -5 18 C-5.73075648 20.3140622 -6.40138258 22.64828869 -7 25 C-7.66 25 -8.32 25 -9 25 C-9 26.65 -9 28.3 -9 30 C-9.66 30 -10.32 30 -11 30 C-11 30.66 -11 31.32 -11 32 C-11.66 31.67 -12.32 31.34 -13 31 C-8.71 20.77 -4.42 10.54 0 0 Z " fill="#4345AC" transform="translate(372,359)"/>
<path d="M0 0 C0.66 0.99 1.32 1.98 2 3 C1.24902344 5.78735352 1.24902344 5.78735352 -0.140625 9.12890625 C-0.63433594 10.32837891 -1.12804687 11.52785156 -1.63671875 12.76367188 C-1.90145996 13.38685303 -2.16620117 14.01003418 -2.43896484 14.65209961 C-3.24610561 16.55332673 -4.0328738 18.46198611 -4.81640625 20.37304688 C-8.69950317 29.69950317 -8.69950317 29.69950317 -11 32 C-10.34 28.7 -9.68 25.4 -9 22 C-8.34 22 -7.68 22 -7 22 C-6.34 18.7 -5.68 15.4 -5 12 C-4.34 12 -3.68 12 -3 12 C-3 10.02 -3 8.04 -3 6 C-2.34 6 -1.68 6 -1 6 C-1.020625 5.195625 -1.04125 4.39125 -1.0625 3.5625 C-1 1 -1 1 0 0 Z " fill="#4447AF" transform="translate(438,415)"/>
<path d="M0 0 C1.24408846 3.54979908 0.70653282 5.69780965 -0.375 9.25 C-2.41655858 16.78232571 -2.71451668 24.24272903 -3 32 C-6.58780206 26.6182969 -5.53507806 19.89977789 -4.39453125 13.71875 C-3.24056027 8.98571166 -1.87771157 4.49834381 0 0 Z " fill="#5658B4" transform="translate(200,761)"/>
<path d="M0 0 C0.33 0 0.66 0 1 0 C1.02489563 4.5532187 1.04295187 9.10639693 1.05493164 13.65966797 C1.05993092 15.20557344 1.06673253 16.75147425 1.07543945 18.29736328 C1.08769956 20.53158728 1.09327249 22.76574826 1.09765625 25 C1.10281754 25.68054443 1.10797882 26.36108887 1.11329651 27.06225586 C1.11383862 31.79987721 0.66044355 36.31976335 0 41 C-0.66 41 -1.32 41 -2 41 C-2.02749766 39.62511713 -2.0466164 38.25006609 -2.0625 36.875 C-2.07410156 36.10929688 -2.08570313 35.34359375 -2.09765625 34.5546875 C-2 32 -2 32 -1.51367188 29.23242188 C-1.00537667 26.03383416 -0.79570116 22.96166205 -0.68359375 19.7265625 C-0.64169922 18.57285156 -0.59980469 17.41914062 -0.55664062 16.23046875 C-0.51732422 15.04066406 -0.47800781 13.85085938 -0.4375 12.625 C-0.39431641 11.41199219 -0.35113281 10.19898438 -0.30664062 8.94921875 C-0.20094487 5.96624968 -0.09884679 2.98320258 0 0 Z " fill="#3C41A9" transform="translate(761,498)"/>
<path d="M0 0 C0.66 0 1.32 0 2 0 C-0.40968125 10.12488878 -4.5547566 17.76660606 -13 24 C-13.33 23.01 -13.66 22.02 -14 21 C-13.01 20.67 -12.02 20.34 -11 20 C-11 19.34 -11 18.68 -11 18 C-10.34 18 -9.68 18 -9 18 C-9 17.34 -9 16.68 -9 16 C-8.01 15.34 -7.02 14.68 -6 14 C-5.65657551 12.66923011 -5.32380126 11.33568021 -5 10 C-4.525625 9.566875 -4.05125 9.13375 -3.5625 8.6875 C-1.22161761 6.15934702 -0.80670456 3.28887243 0 0 Z " fill="#474AAE" transform="translate(826,741)"/>
<path d="M0 0 C1.28775891 2.9655248 0.9642958 4.0993666 -0.15234375 7.20703125 C-0.7295302 8.41753574 -1.32560277 9.61916556 -1.9375 10.8125 C-2.25017822 11.43398926 -2.56285645 12.05547852 -2.88500977 12.69580078 C-5.66539023 17.92744145 -9.10512127 21.61808379 -14 25 C-14.33 24.01 -14.66 23.02 -15 22 C-14.34 22 -13.68 22 -13 22 C-13 21.34 -13 20.68 -13 20 C-12.34 20 -11.68 20 -11 20 C-11 19.34 -11 18.68 -11 18 C-10.34 18 -9.68 18 -9 18 C-9 17.34 -9 16.68 -9 16 C-8.34 16 -7.68 16 -7 16 C-7 15.34 -7 14.68 -7 14 C-6.34 14 -5.68 14 -5 14 C-4.731875 13.175 -4.46375 12.35 -4.1875 11.5 C-2.87475078 7.63084439 -1.44898716 3.82005706 0 0 Z " fill="#4648AD" transform="translate(712,799)"/>
<path d="M0 0 C5.34426076 4.42691041 10.18856829 9.13098292 14.9375 14.1875 C15.62134766 14.89841797 16.30519531 15.60933594 17.00976562 16.34179688 C17.65494141 17.02693359 18.30011719 17.71207031 18.96484375 18.41796875 C19.5487085 19.03438232 20.13257324 19.6507959 20.73413086 20.28588867 C22 22 22 22 22 25 C20.8717446 23.8717446 19.74385044 22.74312686 18.6171875 21.61328125 C17.46082551 20.4597124 16.29870256 19.31190691 15.1328125 18.16796875 C2.98877677 6.18931872 2.98877677 6.18931872 0 0 Z " fill="#464AA8" transform="translate(743,252)"/>
<path d="M0 0 C0.66 0.33 1.32 0.66 2 1 C-0.97 8.26 -3.94 15.52 -7 23 C-8.04692525 18.81229899 -7.85469996 17.67828787 -6.5625 13.75 C-6.27503906 12.85796875 -5.98757813 11.9659375 -5.69140625 11.046875 C-5.46324219 10.37140625 -5.23507812 9.6959375 -5 9 C-4.34 9 -3.68 9 -3 9 C-2.67 7.02 -2.34 5.04 -2 3 C-1.34 3 -0.68 3 0 3 C0 2.01 0 1.02 0 0 Z " fill="#4446AF" transform="translate(326,688)"/>
<path d="M0 0 C0.33 0 0.66 0 1 0 C0.67 2.64 0.34 5.28 0 8 C-0.66 8 -1.32 8 -2 8 C-2.19335938 8.72445312 -2.38671875 9.44890625 -2.5859375 10.1953125 C-3.92860286 15.18045615 -5.28749486 20.12594691 -7 25 C-7.99 25 -8.98 25 -10 25 C-7.37589493 16.35588919 -3.68616238 8.23074615 0 0 Z " fill="#4143AA" transform="translate(300,528)"/>
<path d="M0 0 C1.22444576 3.67333729 0.65749402 4.4316916 -0.87109375 7.88671875 C-1.28037109 8.82451172 -1.68964844 9.76230469 -2.11132812 10.72851562 C-2.7677832 12.19321289 -2.7677832 12.19321289 -3.4375 13.6875 C-4.0881543 15.16959961 -4.0881543 15.16959961 -4.75195312 16.68164062 C-5.82609533 19.12501905 -6.90904518 21.56409304 -8 24 C-9.09658936 20.71023192 -8.79953138 19.28696233 -8 16 C-7.34 16 -6.68 16 -6 16 C-6.061875 15.2575 -6.12375 14.515 -6.1875 13.75 C-5.9631595 10.45967264 -4.9513873 9.57583124 -3 7 C-2.64763503 5.00326516 -2.31165441 3.00349261 -2 1 C-1.34 0.67 -0.68 0.34 0 0 Z " fill="#4447AD" transform="translate(355,619)"/>
<path d="M0 0 C2.470392 0.97676847 4.92655553 1.96777685 7.359375 3.03515625 C13.00612641 5.46178308 17.86540571 6.60421972 24 7 C24 7.33 24 7.66 24 8 C16.24094524 9.88826554 11.43458848 8.33898255 4.46875 4.640625 C2 3 2 3 0 0 Z " fill="#4D51AF" transform="translate(213,822)"/>
<path d="M0 0 C1.31223496 3.93670488 0.24296256 6.12488144 -1 10 C-1.66 10 -2.32 10 -3 10 C-3.12117188 10.61488281 -3.24234375 11.22976563 -3.3671875 11.86328125 C-3.53476562 12.67152344 -3.70234375 13.47976563 -3.875 14.3125 C-4.03742188 15.11300781 -4.19984375 15.91351563 -4.3671875 16.73828125 C-5 19 -5 19 -7 22 C-7.66 21.67 -8.32 21.34 -9 21 C-6.03 14.07 -3.06 7.14 0 0 Z " fill="#4546AA" transform="translate(336,444)"/>
<path d="M0 0 C3.23353762 1.34392321 4.6010349 2.45026425 6.140625 5.58984375 C6.48867188 6.29173828 6.83671875 6.99363281 7.1953125 7.71679688 C7.54335938 8.44962891 7.89140625 9.18246094 8.25 9.9375 C8.61351562 10.66646484 8.97703125 11.39542969 9.3515625 12.14648438 C12 17.57777256 12 17.57777256 12 21 C8.93736668 17.22374338 6.6711968 13.04461149 4.3125 8.8125 C3.89677734 8.07580078 3.48105469 7.33910156 3.05273438 6.58007812 C0 1.13127309 0 1.13127309 0 0 Z " fill="#4A4CAB" transform="translate(694,651)"/>
<path d="M0 0 C1.64861525 2.47292287 2.66488584 4.43579111 3.7265625 7.16015625 C4.0359375 7.95357422 4.3453125 8.74699219 4.6640625 9.56445312 C4.98117187 10.38880859 5.29828125 11.21316406 5.625 12.0625 C5.94984375 12.89072266 6.2746875 13.71894531 6.609375 14.57226562 C9 20.74469866 9 20.74469866 9 23 C6 22 6 22 5.10864258 20.29760742 C4.87298584 19.57420166 4.6373291 18.8507959 4.39453125 18.10546875 C4.13349609 17.31462891 3.87246094 16.52378906 3.60351562 15.70898438 C3.34248047 14.87689453 3.08144531 14.04480469 2.8125 13.1875 C2.40354492 11.95676758 2.40354492 11.95676758 1.98632812 10.70117188 C0.74455188 6.86380318 0 4.09761399 0 0 Z " fill="#4A4DAC" transform="translate(545,363)"/>
<path d="M0 0 C0.33 0 0.66 0 1 0 C1.28492089 4.93862882 1.16273008 7.22905259 -2 11 C-2.72351427 12.98014432 -3.40265389 14.97821315 -4 17 C-4.66 16.67 -5.32 16.34 -6 16 C-4.25192871 10.53262809 -2.34205919 5.24175152 0 0 Z " fill="#4C4CB2" transform="translate(422,560)"/>
<path d="M0 0 C1.36420006 4.09260018 -0.2335485 6.47012659 -1.9375 10.1875 C-2.22818359 10.84169922 -2.51886719 11.49589844 -2.81835938 12.16992188 C-3.53695343 13.78381344 -4.2673588 15.39243655 -5 17 C-6.33321983 13.00034052 -5.2797123 10.97384346 -4 7 C-3.67 5.88625 -3.34 4.7725 -3 3.625 C-2 1 -2 1 0 0 Z " fill="#4547B1" transform="translate(338,660)"/>
<path d="M0 0 C1.80180886 6.06652193 -1.31312234 10.84057746 -4.09765625 16.16796875 C-5.12524215 18.14990796 -5.12524215 18.14990796 -6 21 C-6.66 21 -7.32 21 -8 21 C-5.72564796 13.81783567 -2.96415819 6.9241798 0 0 Z " fill="#494BAB" transform="translate(313,497)"/>
<path d="M0 0 C0.99 0.33 1.98 0.66 3 1 C3 1.99 3 2.98 3 4 C3.99 4.33 4.98 4.66 6 5 C7.203125 7.1796875 7.203125 7.1796875 8.25 9.875 C8.78367187 11.20144531 8.78367187 11.20144531 9.328125 12.5546875 C10 15 10 15 9 18 C7.49667622 15.18926431 5.99790265 12.37612794 4.5 9.5625 C4.07074219 8.76005859 3.64148438 7.95761719 3.19921875 7.13085938 C2.79316406 6.36708984 2.38710938 5.60332031 1.96875 4.81640625 C1.59169922 4.10943604 1.21464844 3.40246582 0.82617188 2.67407227 C0 1 0 1 0 0 Z " fill="#4B4DAE" transform="translate(722,701)"/>
<path d="M0 0 C1.45606519 4.52092968 0.27032841 7.51648796 -1 12 C0.65 12.33 2.3 12.66 4 13 C4 13.33 4 13.66 4 14 C1.69 14 -0.62 14 -3 14 C-4.37095624 10.30962722 -3.60010967 8.29116165 -2.0625 4.75 C-1.68222656 3.85796875 -1.30195313 2.9659375 -0.91015625 2.046875 C-0.60980469 1.37140625 -0.30945313 0.6959375 0 0 Z " fill="#4042B0" transform="translate(400,612)"/>
<path d="M0 0 C2.72869407 0.03287583 5.2966618 0.56397771 8 1 C8 1.66 8 2.32 8 3 C9.32 3.33 10.64 3.66 12 4 C12.33 5.32 12.66 6.64 13 8 C12.01 7.38125 11.02 6.7625 10 6.125 C6.10253199 3.87738041 2.3881877 2.92382899 -2 2 C-1.34 1.34 -0.68 0.68 0 0 Z " fill="#484AB2" transform="translate(681,468)"/>
<path d="M0 0 C1.89453748 2.84180622 3.00192814 5.31564815 4.1875 8.5 C4.55230469 9.4590625 4.91710937 10.418125 5.29296875 11.40625 C6 14 6 14 5 17 C4.15557119 15.10908264 3.32488413 13.21202485 2.5 11.3125 C2.0359375 10.25675781 1.571875 9.20101562 1.09375 8.11328125 C0.05049199 5.14372184 -0.23065301 3.10804937 0 0 Z " fill="#4748AB" transform="translate(197,794)"/>
<path d="M0 0 C2.13209391 2.75290949 4.01356503 5.54416744 5.75 8.5625 C6.19859375 9.32691406 6.6471875 10.09132813 7.109375 10.87890625 C8 13 8 13 7 16 C2.42251083 11.88281701 0.93051431 5.95529159 0 0 Z " fill="#4A4DAE" transform="translate(667,688)"/>
<path d="M0 0 C0.66 0.33 1.32 0.66 2 1 C-0.97 7.93 -0.97 7.93 -4 15 C-5.18414294 11.44757118 -4.69535532 10.30169438 -3.5625 6.8125 C-3.27503906 5.91144531 -2.98757813 5.01039063 -2.69140625 4.08203125 C-2.46324219 3.39496094 -2.23507812 2.70789063 -2 2 C-1.34 2 -0.68 2 0 2 C0 1.34 0 0.68 0 0 Z " fill="#4547AD" transform="translate(301,749)"/>
<path d="M0 0 C0.33 0 0.66 0 1 0 C1.38281159 5.23175837 0.21854707 8.37802694 -2 13 C-2.66 13 -3.32 13 -4 13 C-3.50269348 8.02693484 -2.44697666 4.36200187 0 0 Z " fill="#393AB1" transform="translate(383,548)"/>
<path d="M0 0 C1.07174763 3.65188082 0.76411467 6.26432828 0 10 C-0.99 10.33 -1.98 10.66 -3 11 C-3.73323796 13.01508358 -3.73323796 13.01508358 -4 15 C-5.32830615 11.01508155 -4.23204404 9.59951452 -2.5625 5.8125 C-2.08941406 4.72582031 -1.61632812 3.63914062 -1.12890625 2.51953125 C-0.75636719 1.68808594 -0.38382812 0.85664063 0 0 Z " fill="#4A4CB0" transform="translate(357,394)"/>
<path d="M0 0 C3.83520308 3.28731693 6.32465344 7.25147171 8 12 C7.67 12.66 7.34 13.32 7 14 C3 8.25 3 8.25 3 6 C2.34 6 1.68 6 1 6 C0.67 4.02 0.34 2.04 0 0 Z " fill="#3F42A8" transform="translate(759,632)"/>
<path d="M0 0 C0 3 0 3 -1.5 5.125 C-5.00051975 7.75038982 -7.66656113 7.71110408 -12 8 C-8.21087559 5.00027651 -4.11168168 2.52489191 0 0 Z " fill="#4547B8" transform="translate(698,543)"/>
<path d="M0 0 C1.4727491 3.82914766 0.50018704 6.28901101 -1 10 C-1.99 11.485 -1.99 11.485 -3 13 C-3.66 13 -4.32 13 -5 13 C-4.54554036 11.58208592 -4.08625056 10.16571954 -3.625 8.75 C-3.24214844 7.56664062 -3.24214844 7.56664062 -2.8515625 6.359375 C-2.04826333 4.13372042 -1.10288338 2.09068328 0 0 Z " fill="#4D4EB0" transform="translate(225,703)"/>
<path d="M0 0 C0.66 0 1.32 0 2 0 C1.38487182 5.00890086 0.7282448 10.00632136 0 15 C-0.33 15 -0.66 15 -1 15 C-1.22304441 13.25181409 -1.4278645 11.50129677 -1.625 9.75 C-1.74101563 8.77546875 -1.85703125 7.8009375 -1.9765625 6.796875 C-2.00112537 3.86570607 -1.5312717 2.45471036 0 0 Z " fill="#5255B4" transform="translate(759,539)"/>
<path d="M0 0 C0.66 0 1.32 0 2 0 C2.33 2.31 2.66 4.62 3 7 C3.66 7 4.32 7 5 7 C5.66 9.31 6.32 11.62 7 14 C2.95510987 10.65250472 1.40885839 6.93100435 0 2 C0 1.34 0 0.68 0 0 Z " fill="#4043A8" transform="translate(698,331)"/>
<path d="M0 0 C0.66 0 1.32 0 2 0 C2 0.66 2 1.32 2 2 C2.66 2 3.32 2 4 2 C5.5078125 3.75 5.5078125 3.75 7.125 6 C7.66382813 6.7425 8.20265625 7.485 8.7578125 8.25 C9.16773438 8.8275 9.57765625 9.405 10 10 C9.01 10 8.02 10 7 10 C5.17578125 8.06640625 5.17578125 8.06640625 3.3125 5.5625 C2.68988281 4.73878906 2.06726563 3.91507813 1.42578125 3.06640625 C0 1 0 1 0 0 Z " fill="#484AAC" transform="translate(203,811)"/>
<path d="M0 0 C2 1 2 1 2.8515625 3.28515625 C3.10679687 4.20167969 3.36203125 5.11820312 3.625 6.0625 C3.88539063 6.98160156 4.14578125 7.90070313 4.4140625 8.84765625 C4.60742188 9.55792969 4.80078125 10.26820313 5 11 C4.01 11.495 4.01 11.495 3 12 C2.67 10.02 2.34 8.04 2 6 C1.34 6 0.68 6 0 6 C0 4.02 0 2.04 0 0 Z " fill="#494BB1" transform="translate(505,259)"/>
<path d="M0 0 C1.03103689 4.12414757 0.94701684 4.9841142 -0.4375 8.75 C-0.72496094 9.54921875 -1.01242188 10.3484375 -1.30859375 11.171875 C-1.53675781 11.77515625 -1.76492187 12.3784375 -2 13 C-2.99 12.67 -3.98 12.34 -5 12 C-3.35 8.04 -1.7 4.08 0 0 Z " fill="#4848AE" transform="translate(231,689)"/>
<path d="M0 0 C0.66 0.99 1.32 1.98 2 3 C1.3203125 5.48046875 1.3203125 5.48046875 0.125 8.1875 C-0.26429688 9.08855469 -0.65359375 9.98960937 -1.0546875 10.91796875 C-1.36664063 11.60503906 -1.67859375 12.29210937 -2 13 C-2.33 13 -2.66 13 -3 13 C-2.88490339 11.58249437 -2.75746342 10.16598831 -2.625 8.75 C-2.55539062 7.96109375 -2.48578125 7.1721875 -2.4140625 6.359375 C-1.98492887 3.914123 -1.21399362 2.15163097 0 0 Z " fill="#4649B0" transform="translate(443,403)"/>
<path d="M0 0 C0.99 0.33 1.98 0.66 3 1 C3.33 4.63 3.66 8.26 4 12 C3.01 12.495 3.01 12.495 2 13 C1.66127487 11.58461283 1.32925376 10.16762037 1 8.75 C0.814375 7.96109375 0.62875 7.1721875 0.4375 6.359375 C0 4 0 4 0 0 Z " fill="#4849AF" transform="translate(703,489)"/>
<path d="M0 0 C3.43970626 1.14656875 3.8782229 1.84518278 5.75 4.8125 C6.19859375 5.49957031 6.6471875 6.18664062 7.109375 6.89453125 C8.16892656 9.39934831 7.92399724 10.49281235 7 13 C6.01719585 11.39805929 5.03888283 9.79336258 4.0625 8.1875 C3.51722656 7.29417969 2.97195313 6.40085937 2.41015625 5.48046875 C1 3 1 3 0 0 Z " fill="#4141A8" transform="translate(695,476)"/>
<path d="M0 0 C2.3129482 2.3129482 2.49580975 3.47904875 3.125 6.625 C3.29257812 7.44226563 3.46015625 8.25953125 3.6328125 9.1015625 C3.81457031 10.04128906 3.81457031 10.04128906 4 11 C3.01 11.495 3.01 11.495 2 12 C2 10.68 2 9.36 2 8 C1.34 8 0.68 8 0 8 C0 5.36 0 2.72 0 0 Z " fill="#5457B4" transform="translate(751,442)"/>
<path d="M0 0 C1.60080151 4.00200378 0.29279692 7.04556236 -1 11 C-1.99 11 -2.98 11 -4 11 C-3.52269162 9.5410574 -3.04308958 8.08286504 -2.5625 6.625 C-2.29566406 5.81289063 -2.02882813 5.00078125 -1.75390625 4.1640625 C-1 2 -1 2 0 0 Z " fill="#4849AF" transform="translate(341,432)"/>
<path d="M0 0 C0.33 0 0.66 0 1 0 C0.85892253 1.45880109 0.71197585 2.91703551 0.5625 4.375 C0.48128906 5.18710937 0.40007812 5.99921875 0.31640625 6.8359375 C0 9 0 9 -1 11 C-1.99 10.67 -2.98 10.34 -4 10 C-2.68 6.7 -1.36 3.4 0 0 Z " fill="#4A4BB1" transform="translate(372,359)"/>
<path d="M0 0 C0.99 0.33 1.98 0.66 3 1 C3.94921875 3.06640625 3.94921875 3.06640625 4.6875 5.5625 C4.93886719 6.38878906 5.19023438 7.21507812 5.44921875 8.06640625 C5.63097656 8.70449219 5.81273437 9.34257812 6 10 C5.01 10.495 5.01 10.495 4 11 C4 10.01 4 9.02 4 8 C3.34 8 2.68 8 2 8 C2 6.35 2 4.7 2 3 C1.34 3 0.68 3 0 3 C0 2.01 0 1.02 0 0 Z " fill="#494BB1" transform="translate(585,472)"/>
<path d="M0 0 C0.99 0.66 1.98 1.32 3 2 C2.34 3.32 1.68 4.64 1 6 C0.34 6 -0.32 6 -1 6 C-1.33 7.65 -1.66 9.3 -2 11 C-2.66 10.67 -3.32 10.34 -4 10 C-2.68 6.7 -1.36 3.4 0 0 Z " fill="#4748AE" transform="translate(346,420)"/>
<path d="M0 0 C0.95465783 2.16967689 1.14401212 3.56328793 0.3984375 5.82421875 C-0.35870385 7.5684743 -1.17609198 9.28627131 -2 11 C-2.33 11 -2.66 11 -3 11 C-2.25 3.375 -2.25 3.375 0 0 Z " fill="#3D3DAD" transform="translate(383,335)"/>
<path d="M0 0 C0.99 0.33 1.98 0.66 3 1 C4.1875 4.5625 4.1875 4.5625 5 8 C4.01 8.33 3.02 8.66 2 9 C1.34 6.03 0.68 3.06 0 0 Z " fill="#4346B3" transform="translate(531,331)"/>
<path d="M0 0 C4.29 0.33 8.58 0.66 13 1 C13 1.33 13 1.66 13 2 C11.39884424 2.2493357 9.79379841 2.47378648 8.1875 2.6875 C6.84751953 2.87892578 6.84751953 2.87892578 5.48046875 3.07421875 C3 3 3 3 0 0 Z " fill="#4447B7" transform="translate(224,828)"/>
<path d="M0 0 C0.66 0 1.32 0 2 0 C1.49287967 3.71888239 0.88391785 6.73454239 -1 10 C-2.54578627 6.90842747 -1.60277633 4.31526981 -1 1 C-0.67 0.67 -0.34 0.34 0 0 Z " fill="#3A3CAD" transform="translate(446,395)"/>
<path d="M0 0 C1.12894876 0.93274109 2.25300876 1.87140122 3.375 2.8125 C4.00148438 3.33457031 4.62796875 3.85664063 5.2734375 4.39453125 C7 6 7 6 9 9 C8.01 9.495 8.01 9.495 7 10 C7 9.34 7 8.68 7 8 C6.01 7.67 5.02 7.34 4 7 C0 2.54285714 0 2.54285714 0 0 Z " fill="#4D50AB" transform="translate(812,327)"/>
<path d="M0 0 C2.1875 0.3125 2.1875 0.3125 4 1 C1.03 3.475 1.03 3.475 -2 6 C-2.33 5.01 -2.66 4.02 -3 3 C-1.75 1.4375 -1.75 1.4375 0 0 Z " fill="#4B4FB9" transform="translate(433,227)"/>
<path d="M0 0 C0 0.33 0 0.66 0 1 C-2.64 1.66 -5.28 2.32 -8 3 C-8 3.66 -8 4.32 -8 5 C-8.66 5 -9.32 5 -10 5 C-9.625 3.0625 -9.625 3.0625 -9 1 C-6.04335481 -0.4783226 -3.25770263 -0.06032783 0 0 Z " fill="#4142B4" transform="translate(433,554)"/>
<path d="M0 0 C1.28485596 5.13942384 0.22194431 6.37835584 -2 11 C-2.66 10.67 -3.32 10.34 -4 10 C-2.68 6.7 -1.36 3.4 0 0 Z " fill="#4B4CAA" transform="translate(351,408)"/>
<path d="M0 0 C1.28485596 5.13942384 0.22194431 6.37835584 -2 11 C-2.66 10.67 -3.32 10.34 -4 10 C-2.68 6.7 -1.36 3.4 0 0 Z " fill="#4E4EAB" transform="translate(413,263)"/>
<path d="M0 0 C-2.25 1.625 -2.25 1.625 -5 3 C-7.3125 2.1875 -7.3125 2.1875 -9 1 C-2.25 -1.125 -2.25 -1.125 0 0 Z " fill="#4447B5" transform="translate(810,767)"/>
<path d="M0 0 C0.66 0.99 1.32 1.98 2 3 C1.67 3.66 1.34 4.32 1 5 C0.34 5 -0.32 5 -1 5 C-1.66 6.32 -2.32 7.64 -3 9 C-2.5020163 5.26512223 -2.12508244 3.18762365 0 0 Z " fill="#3D3DA9" transform="translate(410,590)"/>
</svg>
